%TF.GenerationSoftware,KiCad,Pcbnew,9.0.4*%
%TF.CreationDate,2025-11-06T21:19:11-08:00*%
%TF.ProjectId,SolarChargingStation,536f6c61-7243-4686-9172-67696e675374,rev?*%
%TF.SameCoordinates,Original*%
%TF.FileFunction,Soldermask,Top*%
%TF.FilePolarity,Negative*%
%FSLAX46Y46*%
G04 Gerber Fmt 4.6, Leading zero omitted, Abs format (unit mm)*
G04 Created by KiCad (PCBNEW 9.0.4) date 2025-11-06 21:19:11*
%MOMM*%
%LPD*%
G01*
G04 APERTURE LIST*
G04 Aperture macros list*
%AMRoundRect*
0 Rectangle with rounded corners*
0 $1 Rounding radius*
0 $2 $3 $4 $5 $6 $7 $8 $9 X,Y pos of 4 corners*
0 Add a 4 corners polygon primitive as box body*
4,1,4,$2,$3,$4,$5,$6,$7,$8,$9,$2,$3,0*
0 Add four circle primitives for the rounded corners*
1,1,$1+$1,$2,$3*
1,1,$1+$1,$4,$5*
1,1,$1+$1,$6,$7*
1,1,$1+$1,$8,$9*
0 Add four rect primitives between the rounded corners*
20,1,$1+$1,$2,$3,$4,$5,0*
20,1,$1+$1,$4,$5,$6,$7,0*
20,1,$1+$1,$6,$7,$8,$9,0*
20,1,$1+$1,$8,$9,$2,$3,0*%
G04 Aperture macros list end*
%ADD10C,0.010000*%
%ADD11RoundRect,0.102000X-0.754000X0.754000X-0.754000X-0.754000X0.754000X-0.754000X0.754000X0.754000X0*%
%ADD12C,1.712000*%
%ADD13C,3.204000*%
%ADD14RoundRect,0.250000X-0.250000X-0.475000X0.250000X-0.475000X0.250000X0.475000X-0.250000X0.475000X0*%
%ADD15RoundRect,0.250000X-0.262500X-0.450000X0.262500X-0.450000X0.262500X0.450000X-0.262500X0.450000X0*%
%ADD16RoundRect,0.243750X-0.243750X-0.456250X0.243750X-0.456250X0.243750X0.456250X-0.243750X0.456250X0*%
%ADD17RoundRect,0.250000X-0.350000X-0.625000X0.350000X-0.625000X0.350000X0.625000X-0.350000X0.625000X0*%
%ADD18O,1.200000X1.750000*%
%ADD19C,0.558800*%
%ADD20O,1.204000X2.304000*%
%ADD21O,1.204000X2.004000*%
%ADD22R,3.000000X3.000000*%
%ADD23R,0.508000X1.447800*%
%ADD24C,0.650000*%
%ADD25RoundRect,0.058000X-0.474000X-0.174000X0.474000X-0.174000X0.474000X0.174000X-0.474000X0.174000X0*%
%ADD26RoundRect,0.058000X-0.174000X-0.474000X0.174000X-0.474000X0.174000X0.474000X-0.174000X0.474000X0*%
%ADD27RoundRect,0.102000X-0.840000X-0.840000X0.840000X-0.840000X0.840000X0.840000X-0.840000X0.840000X0*%
%ADD28RoundRect,0.218750X-0.218750X-0.381250X0.218750X-0.381250X0.218750X0.381250X-0.218750X0.381250X0*%
%ADD29R,0.670001X0.299999*%
%ADD30RoundRect,0.250000X0.262500X0.450000X-0.262500X0.450000X-0.262500X-0.450000X0.262500X-0.450000X0*%
%ADD31R,1.500000X0.900000*%
%ADD32C,0.609600*%
%ADD33R,0.900000X1.500000*%
%ADD34C,0.600000*%
%ADD35R,3.900000X3.900000*%
%ADD36R,0.558800X1.168400*%
G04 APERTURE END LIST*
D10*
%TO.C,J1*%
X265882000Y-20112000D02*
X265182000Y-20112000D01*
X265182000Y-18862000D01*
X265882000Y-18862000D01*
X265882000Y-20112000D01*
G36*
X265882000Y-20112000D02*
G01*
X265182000Y-20112000D01*
X265182000Y-18862000D01*
X265882000Y-18862000D01*
X265882000Y-20112000D01*
G37*
X266682000Y-20112000D02*
X265982000Y-20112000D01*
X265982000Y-18862000D01*
X266682000Y-18862000D01*
X266682000Y-20112000D01*
G36*
X266682000Y-20112000D02*
G01*
X265982000Y-20112000D01*
X265982000Y-18862000D01*
X266682000Y-18862000D01*
X266682000Y-20112000D01*
G37*
X267182000Y-20112000D02*
X266782000Y-20112000D01*
X266782000Y-18862000D01*
X267182000Y-18862000D01*
X267182000Y-20112000D01*
G36*
X267182000Y-20112000D02*
G01*
X266782000Y-20112000D01*
X266782000Y-18862000D01*
X267182000Y-18862000D01*
X267182000Y-20112000D01*
G37*
X267682000Y-20112000D02*
X267282000Y-20112000D01*
X267282000Y-18862000D01*
X267682000Y-18862000D01*
X267682000Y-20112000D01*
G36*
X267682000Y-20112000D02*
G01*
X267282000Y-20112000D01*
X267282000Y-18862000D01*
X267682000Y-18862000D01*
X267682000Y-20112000D01*
G37*
X268182000Y-20112000D02*
X267782000Y-20112000D01*
X267782000Y-18862000D01*
X268182000Y-18862000D01*
X268182000Y-20112000D01*
G36*
X268182000Y-20112000D02*
G01*
X267782000Y-20112000D01*
X267782000Y-18862000D01*
X268182000Y-18862000D01*
X268182000Y-20112000D01*
G37*
X268682000Y-20112000D02*
X268282000Y-20112000D01*
X268282000Y-18862000D01*
X268682000Y-18862000D01*
X268682000Y-20112000D01*
G36*
X268682000Y-20112000D02*
G01*
X268282000Y-20112000D01*
X268282000Y-18862000D01*
X268682000Y-18862000D01*
X268682000Y-20112000D01*
G37*
X269182000Y-20112000D02*
X268782000Y-20112000D01*
X268782000Y-18862000D01*
X269182000Y-18862000D01*
X269182000Y-20112000D01*
G36*
X269182000Y-20112000D02*
G01*
X268782000Y-20112000D01*
X268782000Y-18862000D01*
X269182000Y-18862000D01*
X269182000Y-20112000D01*
G37*
X269682000Y-20112000D02*
X269282000Y-20112000D01*
X269282000Y-18862000D01*
X269682000Y-18862000D01*
X269682000Y-20112000D01*
G36*
X269682000Y-20112000D02*
G01*
X269282000Y-20112000D01*
X269282000Y-18862000D01*
X269682000Y-18862000D01*
X269682000Y-20112000D01*
G37*
X270182000Y-20112000D02*
X269782000Y-20112000D01*
X269782000Y-18862000D01*
X270182000Y-18862000D01*
X270182000Y-20112000D01*
G36*
X270182000Y-20112000D02*
G01*
X269782000Y-20112000D01*
X269782000Y-18862000D01*
X270182000Y-18862000D01*
X270182000Y-20112000D01*
G37*
X270682000Y-20112000D02*
X270282000Y-20112000D01*
X270282000Y-18862000D01*
X270682000Y-18862000D01*
X270682000Y-20112000D01*
G36*
X270682000Y-20112000D02*
G01*
X270282000Y-20112000D01*
X270282000Y-18862000D01*
X270682000Y-18862000D01*
X270682000Y-20112000D01*
G37*
X271482000Y-20112000D02*
X270782000Y-20112000D01*
X270782000Y-18862000D01*
X271482000Y-18862000D01*
X271482000Y-20112000D01*
G36*
X271482000Y-20112000D02*
G01*
X270782000Y-20112000D01*
X270782000Y-18862000D01*
X271482000Y-18862000D01*
X271482000Y-20112000D01*
G37*
X272282000Y-20112000D02*
X271582000Y-20112000D01*
X271582000Y-18862000D01*
X272282000Y-18862000D01*
X272282000Y-20112000D01*
G36*
X272282000Y-20112000D02*
G01*
X271582000Y-20112000D01*
X271582000Y-18862000D01*
X272282000Y-18862000D01*
X272282000Y-20112000D01*
G37*
%TO.C,J4*%
X199334000Y-20112000D02*
X198634000Y-20112000D01*
X198634000Y-18862000D01*
X199334000Y-18862000D01*
X199334000Y-20112000D01*
G36*
X199334000Y-20112000D02*
G01*
X198634000Y-20112000D01*
X198634000Y-18862000D01*
X199334000Y-18862000D01*
X199334000Y-20112000D01*
G37*
X200134000Y-20112000D02*
X199434000Y-20112000D01*
X199434000Y-18862000D01*
X200134000Y-18862000D01*
X200134000Y-20112000D01*
G36*
X200134000Y-20112000D02*
G01*
X199434000Y-20112000D01*
X199434000Y-18862000D01*
X200134000Y-18862000D01*
X200134000Y-20112000D01*
G37*
X200634000Y-20112000D02*
X200234000Y-20112000D01*
X200234000Y-18862000D01*
X200634000Y-18862000D01*
X200634000Y-20112000D01*
G36*
X200634000Y-20112000D02*
G01*
X200234000Y-20112000D01*
X200234000Y-18862000D01*
X200634000Y-18862000D01*
X200634000Y-20112000D01*
G37*
X201134000Y-20112000D02*
X200734000Y-20112000D01*
X200734000Y-18862000D01*
X201134000Y-18862000D01*
X201134000Y-20112000D01*
G36*
X201134000Y-20112000D02*
G01*
X200734000Y-20112000D01*
X200734000Y-18862000D01*
X201134000Y-18862000D01*
X201134000Y-20112000D01*
G37*
X201634000Y-20112000D02*
X201234000Y-20112000D01*
X201234000Y-18862000D01*
X201634000Y-18862000D01*
X201634000Y-20112000D01*
G36*
X201634000Y-20112000D02*
G01*
X201234000Y-20112000D01*
X201234000Y-18862000D01*
X201634000Y-18862000D01*
X201634000Y-20112000D01*
G37*
X202134000Y-20112000D02*
X201734000Y-20112000D01*
X201734000Y-18862000D01*
X202134000Y-18862000D01*
X202134000Y-20112000D01*
G36*
X202134000Y-20112000D02*
G01*
X201734000Y-20112000D01*
X201734000Y-18862000D01*
X202134000Y-18862000D01*
X202134000Y-20112000D01*
G37*
X202634000Y-20112000D02*
X202234000Y-20112000D01*
X202234000Y-18862000D01*
X202634000Y-18862000D01*
X202634000Y-20112000D01*
G36*
X202634000Y-20112000D02*
G01*
X202234000Y-20112000D01*
X202234000Y-18862000D01*
X202634000Y-18862000D01*
X202634000Y-20112000D01*
G37*
X203134000Y-20112000D02*
X202734000Y-20112000D01*
X202734000Y-18862000D01*
X203134000Y-18862000D01*
X203134000Y-20112000D01*
G36*
X203134000Y-20112000D02*
G01*
X202734000Y-20112000D01*
X202734000Y-18862000D01*
X203134000Y-18862000D01*
X203134000Y-20112000D01*
G37*
X203634000Y-20112000D02*
X203234000Y-20112000D01*
X203234000Y-18862000D01*
X203634000Y-18862000D01*
X203634000Y-20112000D01*
G36*
X203634000Y-20112000D02*
G01*
X203234000Y-20112000D01*
X203234000Y-18862000D01*
X203634000Y-18862000D01*
X203634000Y-20112000D01*
G37*
X204134000Y-20112000D02*
X203734000Y-20112000D01*
X203734000Y-18862000D01*
X204134000Y-18862000D01*
X204134000Y-20112000D01*
G36*
X204134000Y-20112000D02*
G01*
X203734000Y-20112000D01*
X203734000Y-18862000D01*
X204134000Y-18862000D01*
X204134000Y-20112000D01*
G37*
X204934000Y-20112000D02*
X204234000Y-20112000D01*
X204234000Y-18862000D01*
X204934000Y-18862000D01*
X204934000Y-20112000D01*
G36*
X204934000Y-20112000D02*
G01*
X204234000Y-20112000D01*
X204234000Y-18862000D01*
X204934000Y-18862000D01*
X204934000Y-20112000D01*
G37*
X205734000Y-20112000D02*
X205034000Y-20112000D01*
X205034000Y-18862000D01*
X205734000Y-18862000D01*
X205734000Y-20112000D01*
G36*
X205734000Y-20112000D02*
G01*
X205034000Y-20112000D01*
X205034000Y-18862000D01*
X205734000Y-18862000D01*
X205734000Y-20112000D01*
G37*
%TD*%
D11*
%TO.C,U5*%
X172536000Y-55118000D03*
D12*
X172536000Y-57658000D03*
X172536000Y-60198000D03*
X172536000Y-62738000D03*
D13*
X172036000Y-47928000D03*
X172036000Y-69928000D03*
X150036000Y-69928000D03*
X150036000Y-47928000D03*
%TD*%
D14*
%TO.C,C11*%
X91717500Y-114662250D03*
X93617500Y-114662250D03*
%TD*%
D15*
%TO.C,R5*%
X157687000Y-40640000D03*
X159512000Y-40640000D03*
%TD*%
D14*
%TO.C,C6*%
X263267000Y-133096000D03*
X265167000Y-133096000D03*
%TD*%
%TO.C,C10*%
X91445000Y-105772250D03*
X93345000Y-105772250D03*
%TD*%
D16*
%TO.C,D3*%
X267211998Y-115951000D03*
X269086998Y-115951000D03*
%TD*%
D17*
%TO.C,BT1*%
X123914000Y-19939000D03*
D18*
X125914000Y-19939000D03*
%TD*%
D19*
%TO.C,J1*%
X271622000Y-18412000D03*
X265842000Y-18412000D03*
D20*
X273052000Y-18912000D03*
X264412000Y-18912000D03*
D21*
X273052000Y-14732000D03*
X264412000Y-14732000D03*
%TD*%
D17*
%TO.C,J2*%
X234912000Y-39751000D03*
D18*
X236912000Y-39751000D03*
%TD*%
D14*
%TO.C,C2*%
X171328000Y-29972000D03*
X173228000Y-29972000D03*
%TD*%
%TO.C,C4*%
X170312000Y-40005000D03*
X172212000Y-40005000D03*
%TD*%
D15*
%TO.C,R17*%
X256954500Y-137541000D03*
X258779500Y-137541000D03*
%TD*%
%TO.C,R4*%
X260196998Y-91821000D03*
X262021998Y-91821000D03*
%TD*%
D14*
%TO.C,C8*%
X256559500Y-152781000D03*
X258459500Y-152781000D03*
%TD*%
D22*
%TO.C,P1*%
X142812000Y-119988000D03*
X152812000Y-119988000D03*
%TD*%
D15*
%TO.C,R2*%
X214949500Y-54991000D03*
X216774500Y-54991000D03*
%TD*%
D23*
%TO.C,F1*%
X198717000Y-63246000D03*
X201130000Y-63246000D03*
%TD*%
D24*
%TO.C,J4*%
X205074000Y-18412000D03*
X199294000Y-18412000D03*
D20*
X206504000Y-18912000D03*
X197864000Y-18912000D03*
D21*
X206504000Y-14732000D03*
X197864000Y-14732000D03*
%TD*%
D15*
%TO.C,R6*%
X191732000Y-46736000D03*
X193557000Y-46736000D03*
%TD*%
%TO.C,R15*%
X112776000Y-92063250D03*
X114601000Y-92063250D03*
%TD*%
D16*
%TO.C,D1*%
X214289500Y-61341000D03*
X216164500Y-61341000D03*
%TD*%
D15*
%TO.C,R9*%
X150471500Y-26416000D03*
X152296500Y-26416000D03*
%TD*%
D25*
%TO.C,U2*%
X233957000Y-107416000D03*
X233957000Y-107916000D03*
X233957000Y-108416000D03*
X233957000Y-108916000D03*
D26*
X234642000Y-109601000D03*
X235142000Y-109601000D03*
X235642000Y-109601000D03*
X236142000Y-109601000D03*
D25*
X236827000Y-108916000D03*
X236827000Y-108416000D03*
X236827000Y-107916000D03*
X236827000Y-107416000D03*
D26*
X236142000Y-106731000D03*
X235642000Y-106731000D03*
X235142000Y-106731000D03*
X234642000Y-106731000D03*
D27*
X235392000Y-108166000D03*
%TD*%
D15*
%TO.C,R3*%
X248064500Y-133096000D03*
X249889500Y-133096000D03*
%TD*%
%TO.C,R14*%
X91440000Y-88627250D03*
X93265000Y-88627250D03*
%TD*%
%TO.C,R11*%
X160712000Y-26416000D03*
X162537000Y-26416000D03*
%TD*%
D28*
%TO.C,L2*%
X266537000Y-107061000D03*
X268662000Y-107061000D03*
%TD*%
D14*
%TO.C,C7*%
X104425750Y-102393750D03*
X106325750Y-102393750D03*
%TD*%
D29*
%TO.C,U4*%
X263371998Y-82431001D03*
X263371998Y-82931000D03*
X263371998Y-83431002D03*
X264852000Y-83431002D03*
X264852000Y-82931000D03*
X264852000Y-82431001D03*
%TD*%
D23*
%TO.C,TH1*%
X257720498Y-75946000D03*
X260133498Y-75946000D03*
%TD*%
D15*
%TO.C,R16*%
X222927000Y-45466000D03*
X224752000Y-45466000D03*
%TD*%
D30*
%TO.C,R18*%
X259414500Y-129286000D03*
X257589500Y-129286000D03*
%TD*%
D15*
%TO.C,R13*%
X104648000Y-92456000D03*
X106473000Y-92456000D03*
%TD*%
%TO.C,R12*%
X210782000Y-47371000D03*
X212607000Y-47371000D03*
%TD*%
D14*
%TO.C,C9*%
X91440000Y-98787250D03*
X93340000Y-98787250D03*
%TD*%
D31*
%TO.C,U1*%
X195777000Y-95616000D03*
D32*
X203027000Y-104036000D03*
D31*
X195777000Y-96886000D03*
X195777000Y-98156000D03*
X195777000Y-99426000D03*
X195777000Y-100696000D03*
X195777000Y-101966000D03*
X195777000Y-103236000D03*
X195777000Y-104506000D03*
X195777000Y-105776000D03*
X195777000Y-107046000D03*
X195777000Y-108316000D03*
X195777000Y-109586000D03*
X195777000Y-110856000D03*
X195777000Y-112126000D03*
D33*
X197542000Y-113376000D03*
X198812000Y-113376000D03*
X200082000Y-113376000D03*
X201352000Y-113376000D03*
X202622000Y-113376000D03*
X203892000Y-113376000D03*
X205162000Y-113376000D03*
X206432000Y-113376000D03*
X207702000Y-113376000D03*
X208972000Y-113376000D03*
X210242000Y-113376000D03*
X211512000Y-113376000D03*
D31*
X213277000Y-112126000D03*
X213277000Y-110856000D03*
X213277000Y-109586000D03*
X213277000Y-108316000D03*
X213277000Y-107046000D03*
X213277000Y-105776000D03*
X213277000Y-104506000D03*
X213277000Y-103236000D03*
X213277000Y-101966000D03*
X213277000Y-100696000D03*
X213277000Y-99426000D03*
X213277000Y-98156000D03*
X213277000Y-96886000D03*
X213277000Y-95616000D03*
D34*
X201627000Y-102636000D03*
X201627000Y-104036000D03*
X202327000Y-101936000D03*
X202327000Y-103336000D03*
X202327000Y-104736000D03*
X203027000Y-102636000D03*
D35*
X203027000Y-103336000D03*
D34*
X203727000Y-101936000D03*
X203727000Y-103336000D03*
X203727000Y-104736000D03*
X204427000Y-102636000D03*
X204427000Y-104036000D03*
%TD*%
D15*
%TO.C,R10*%
X155632000Y-26416000D03*
X157457000Y-26416000D03*
%TD*%
D14*
%TO.C,C1*%
X203482000Y-54356000D03*
X205382000Y-54356000D03*
%TD*%
D36*
%TO.C,U3*%
X253846998Y-101346000D03*
X255761996Y-101346000D03*
X254804497Y-99314000D03*
%TD*%
D15*
%TO.C,R21*%
X272472000Y-77216000D03*
X274297000Y-77216000D03*
%TD*%
D14*
%TO.C,C5*%
X143957000Y-41275000D03*
X145857000Y-41275000D03*
%TD*%
%TO.C,C3*%
X104648000Y-111760000D03*
X106548000Y-111760000D03*
%TD*%
M02*
