M48
; DRILL file {KiCad 9.0.4} date 2025-11-06T21:19:16-0800
; FORMAT={-:-/ absolute / metric / decimal}
; #@! TF.CreationDate,2025-11-06T21:19:16-08:00
; #@! TF.GenerationSoftware,Kicad,Pcbnew,9.0.4
; #@! TF.FileFunction,Plated,1,2,PTH
FMAT,2
METRIC
; #@! TA.AperFunction,Plated,PTH,ComponentDrill
T1C0.254
; #@! TA.AperFunction,Plated,PTH,ViaDrill
T2C0.300
; #@! TA.AperFunction,Plated,PTH,ComponentDrill
T3C0.305
; #@! TA.AperFunction,Plated,PTH,ComponentDrill
T4C0.620
; #@! TA.AperFunction,Plated,PTH,ComponentDrill
T5C0.750
; #@! TA.AperFunction,Plated,PTH,ComponentDrill
T6C1.000
; #@! TA.AperFunction,Plated,PTH,ComponentDrill
T7C2.000
%
G90
G05
T1
X234.812Y-107.586
X234.812Y-108.746
X235.392Y-108.166
X235.972Y-107.586
X235.972Y-108.746
T2
X99.06Y-99.568
X103.124Y-99.015
X106.172Y-96.52
X115.824Y-96.52
X129.032Y-91.948
X129.54Y-46.736
X130.048Y-33.655
X133.604Y-99.568
X135.636Y-16.256
X138.684Y-101.092
X139.7Y-16.256
X142.748Y-46.736
X144.272Y-96.52
X149.86Y-98.044
X154.813Y-33.655
X167.132Y-35.052
X168.148Y-36.068
X172.777Y-37.211
X173.412Y-25.146
X176.784Y-91.948
X178.816Y-79.248
X180.467Y-95.631
X182.302Y-141.351
X183.572Y-30.861
X183.896Y-36.068
X184.404Y-35.052
X185.928Y-116.84
X185.928Y-125.984
X186.436Y-99.015
X186.747Y-110.871
X186.747Y-112.141
X186.944Y-119.761
X191.192Y-108.204
X193.04Y-128.651
X199.136Y-30.48
X202.184Y-145.923
X205.74Y-21.336
X205.74Y-32.512
X205.797Y-117.856
X205.797Y-140.716
X205.797Y-148.336
X206.248Y-35.052
X207.772Y-33.528
X208.28Y-158.496
X211.328Y-33.528
X213.868Y-145.923
X214.376Y-35.052
X216.846Y-113.919
X216.846Y-139.827
X220.98Y-110.236
X225.482Y-69.596
X225.482Y-108.966
X228.022Y-60.071
X228.022Y-113.411
X228.022Y-117.856
X229.292Y-49.276
X229.927Y-20.066
X231.832Y-113.411
X231.832Y-117.856
X233.102Y-45.466
X235.007Y-91.821
X235.642Y-73.406
X236.728Y-110.744
X237.547Y-80.391
X238.817Y-91.821
X239.452Y-109.601
X240.722Y-115.951
X241.963Y-118.519
X243.262Y-107.061
X243.897Y-123.571
X244.532Y-110.871
X248.92Y-33.528
X249.612Y-112.776
X252.152Y-96.901
X252.476Y-39.624
X253.492Y-105.156
X253.965Y-130.013
X255.327Y-87.376
X255.962Y-135.636
X256.597Y-83.566
X257.232Y-96.901
X257.232Y-133.096
X259.272Y-83.431
X261.677Y-103.251
X262.636Y-95.504
X262.947Y-71.501
X264.852Y-89.281
X265.684Y-32.004
X265.684Y-33.02
X265.684Y-35.052
X269.24Y-35.052
X270.212Y-32.004
X270.764Y-33.02
X272.288Y-95.504
X272.472Y-73.152
X272.796Y-119.38
X276.352Y-123.444
X280.092Y-73.152
X282.448Y-109.22
T3
X201.627Y-102.636
X201.627Y-104.036
X202.327Y-101.936
X202.327Y-103.336
X202.327Y-104.736
X203.027Y-102.636
X203.027Y-104.036
X203.727Y-101.936
X203.727Y-103.336
X203.727Y-104.736
X204.427Y-102.636
X204.427Y-104.036
T5
X123.914Y-19.939
X125.914Y-19.939
X234.912Y-39.751
X236.912Y-39.751
T6
X172.536Y-55.118
X172.536Y-57.658
X172.536Y-60.198
X172.536Y-62.738
T7
X150.036Y-47.928
X150.036Y-69.928
X172.036Y-47.928
X172.036Y-69.928
T4
G00X197.864Y-15.122
M15
G01X197.864Y-14.342
M16
G05
G00X197.864Y-19.452
M15
G01X197.864Y-18.372
M16
G05
G00X206.504Y-15.122
M15
G01X206.504Y-14.342
M16
G05
G00X206.504Y-19.452
M15
G01X206.504Y-18.372
M16
G05
G00X264.412Y-15.122
M15
G01X264.412Y-14.342
M16
G05
G00X264.412Y-19.452
M15
G01X264.412Y-18.372
M16
G05
G00X273.052Y-15.122
M15
G01X273.052Y-14.342
M16
G05
G00X273.052Y-19.452
M15
G01X273.052Y-18.372
M16
G05
M30
