%TF.GenerationSoftware,KiCad,Pcbnew,9.0.4*%
%TF.CreationDate,2025-11-06T21:19:11-08:00*%
%TF.ProjectId,SolarChargingStation,536f6c61-7243-4686-9172-67696e675374,rev?*%
%TF.SameCoordinates,Original*%
%TF.FileFunction,Legend,Top*%
%TF.FilePolarity,Positive*%
%FSLAX46Y46*%
G04 Gerber Fmt 4.6, Leading zero omitted, Abs format (unit mm)*
G04 Created by KiCad (PCBNEW 9.0.4) date 2025-11-06 21:19:11*
%MOMM*%
%LPD*%
G01*
G04 APERTURE LIST*
%ADD10C,0.150000*%
%ADD11C,0.152400*%
%ADD12C,0.127000*%
%ADD13C,0.200000*%
%ADD14C,0.120000*%
%ADD15C,0.160000*%
G04 APERTURE END LIST*
D10*
X174460819Y-50164904D02*
X175270342Y-50164904D01*
X175270342Y-50164904D02*
X175365580Y-50117285D01*
X175365580Y-50117285D02*
X175413200Y-50069666D01*
X175413200Y-50069666D02*
X175460819Y-49974428D01*
X175460819Y-49974428D02*
X175460819Y-49783952D01*
X175460819Y-49783952D02*
X175413200Y-49688714D01*
X175413200Y-49688714D02*
X175365580Y-49641095D01*
X175365580Y-49641095D02*
X175270342Y-49593476D01*
X175270342Y-49593476D02*
X174460819Y-49593476D01*
X174460819Y-48641095D02*
X174460819Y-49117285D01*
X174460819Y-49117285D02*
X174937009Y-49164904D01*
X174937009Y-49164904D02*
X174889390Y-49117285D01*
X174889390Y-49117285D02*
X174841771Y-49022047D01*
X174841771Y-49022047D02*
X174841771Y-48783952D01*
X174841771Y-48783952D02*
X174889390Y-48688714D01*
X174889390Y-48688714D02*
X174937009Y-48641095D01*
X174937009Y-48641095D02*
X175032247Y-48593476D01*
X175032247Y-48593476D02*
X175270342Y-48593476D01*
X175270342Y-48593476D02*
X175365580Y-48641095D01*
X175365580Y-48641095D02*
X175413200Y-48688714D01*
X175413200Y-48688714D02*
X175460819Y-48783952D01*
X175460819Y-48783952D02*
X175460819Y-49022047D01*
X175460819Y-49022047D02*
X175413200Y-49117285D01*
X175413200Y-49117285D02*
X175365580Y-49164904D01*
X92024642Y-112627580D02*
X91977023Y-112675200D01*
X91977023Y-112675200D02*
X91834166Y-112722819D01*
X91834166Y-112722819D02*
X91738928Y-112722819D01*
X91738928Y-112722819D02*
X91596071Y-112675200D01*
X91596071Y-112675200D02*
X91500833Y-112579961D01*
X91500833Y-112579961D02*
X91453214Y-112484723D01*
X91453214Y-112484723D02*
X91405595Y-112294247D01*
X91405595Y-112294247D02*
X91405595Y-112151390D01*
X91405595Y-112151390D02*
X91453214Y-111960914D01*
X91453214Y-111960914D02*
X91500833Y-111865676D01*
X91500833Y-111865676D02*
X91596071Y-111770438D01*
X91596071Y-111770438D02*
X91738928Y-111722819D01*
X91738928Y-111722819D02*
X91834166Y-111722819D01*
X91834166Y-111722819D02*
X91977023Y-111770438D01*
X91977023Y-111770438D02*
X92024642Y-111818057D01*
X92977023Y-112722819D02*
X92405595Y-112722819D01*
X92691309Y-112722819D02*
X92691309Y-111722819D01*
X92691309Y-111722819D02*
X92596071Y-111865676D01*
X92596071Y-111865676D02*
X92500833Y-111960914D01*
X92500833Y-111960914D02*
X92405595Y-112008533D01*
X93929404Y-112722819D02*
X93357976Y-112722819D01*
X93643690Y-112722819D02*
X93643690Y-111722819D01*
X93643690Y-111722819D02*
X93548452Y-111865676D01*
X93548452Y-111865676D02*
X93453214Y-111960914D01*
X93453214Y-111960914D02*
X93357976Y-112008533D01*
X158432833Y-39444819D02*
X158099500Y-38968628D01*
X157861405Y-39444819D02*
X157861405Y-38444819D01*
X157861405Y-38444819D02*
X158242357Y-38444819D01*
X158242357Y-38444819D02*
X158337595Y-38492438D01*
X158337595Y-38492438D02*
X158385214Y-38540057D01*
X158385214Y-38540057D02*
X158432833Y-38635295D01*
X158432833Y-38635295D02*
X158432833Y-38778152D01*
X158432833Y-38778152D02*
X158385214Y-38873390D01*
X158385214Y-38873390D02*
X158337595Y-38921009D01*
X158337595Y-38921009D02*
X158242357Y-38968628D01*
X158242357Y-38968628D02*
X157861405Y-38968628D01*
X159337595Y-38444819D02*
X158861405Y-38444819D01*
X158861405Y-38444819D02*
X158813786Y-38921009D01*
X158813786Y-38921009D02*
X158861405Y-38873390D01*
X158861405Y-38873390D02*
X158956643Y-38825771D01*
X158956643Y-38825771D02*
X159194738Y-38825771D01*
X159194738Y-38825771D02*
X159289976Y-38873390D01*
X159289976Y-38873390D02*
X159337595Y-38921009D01*
X159337595Y-38921009D02*
X159385214Y-39016247D01*
X159385214Y-39016247D02*
X159385214Y-39254342D01*
X159385214Y-39254342D02*
X159337595Y-39349580D01*
X159337595Y-39349580D02*
X159289976Y-39397200D01*
X159289976Y-39397200D02*
X159194738Y-39444819D01*
X159194738Y-39444819D02*
X158956643Y-39444819D01*
X158956643Y-39444819D02*
X158861405Y-39397200D01*
X158861405Y-39397200D02*
X158813786Y-39349580D01*
X264050333Y-131775580D02*
X264002714Y-131823200D01*
X264002714Y-131823200D02*
X263859857Y-131870819D01*
X263859857Y-131870819D02*
X263764619Y-131870819D01*
X263764619Y-131870819D02*
X263621762Y-131823200D01*
X263621762Y-131823200D02*
X263526524Y-131727961D01*
X263526524Y-131727961D02*
X263478905Y-131632723D01*
X263478905Y-131632723D02*
X263431286Y-131442247D01*
X263431286Y-131442247D02*
X263431286Y-131299390D01*
X263431286Y-131299390D02*
X263478905Y-131108914D01*
X263478905Y-131108914D02*
X263526524Y-131013676D01*
X263526524Y-131013676D02*
X263621762Y-130918438D01*
X263621762Y-130918438D02*
X263764619Y-130870819D01*
X263764619Y-130870819D02*
X263859857Y-130870819D01*
X263859857Y-130870819D02*
X264002714Y-130918438D01*
X264002714Y-130918438D02*
X264050333Y-130966057D01*
X264907476Y-130870819D02*
X264717000Y-130870819D01*
X264717000Y-130870819D02*
X264621762Y-130918438D01*
X264621762Y-130918438D02*
X264574143Y-130966057D01*
X264574143Y-130966057D02*
X264478905Y-131108914D01*
X264478905Y-131108914D02*
X264431286Y-131299390D01*
X264431286Y-131299390D02*
X264431286Y-131680342D01*
X264431286Y-131680342D02*
X264478905Y-131775580D01*
X264478905Y-131775580D02*
X264526524Y-131823200D01*
X264526524Y-131823200D02*
X264621762Y-131870819D01*
X264621762Y-131870819D02*
X264812238Y-131870819D01*
X264812238Y-131870819D02*
X264907476Y-131823200D01*
X264907476Y-131823200D02*
X264955095Y-131775580D01*
X264955095Y-131775580D02*
X265002714Y-131680342D01*
X265002714Y-131680342D02*
X265002714Y-131442247D01*
X265002714Y-131442247D02*
X264955095Y-131347009D01*
X264955095Y-131347009D02*
X264907476Y-131299390D01*
X264907476Y-131299390D02*
X264812238Y-131251771D01*
X264812238Y-131251771D02*
X264621762Y-131251771D01*
X264621762Y-131251771D02*
X264526524Y-131299390D01*
X264526524Y-131299390D02*
X264478905Y-131347009D01*
X264478905Y-131347009D02*
X264431286Y-131442247D01*
X91437142Y-104226830D02*
X91389523Y-104274450D01*
X91389523Y-104274450D02*
X91246666Y-104322069D01*
X91246666Y-104322069D02*
X91151428Y-104322069D01*
X91151428Y-104322069D02*
X91008571Y-104274450D01*
X91008571Y-104274450D02*
X90913333Y-104179211D01*
X90913333Y-104179211D02*
X90865714Y-104083973D01*
X90865714Y-104083973D02*
X90818095Y-103893497D01*
X90818095Y-103893497D02*
X90818095Y-103750640D01*
X90818095Y-103750640D02*
X90865714Y-103560164D01*
X90865714Y-103560164D02*
X90913333Y-103464926D01*
X90913333Y-103464926D02*
X91008571Y-103369688D01*
X91008571Y-103369688D02*
X91151428Y-103322069D01*
X91151428Y-103322069D02*
X91246666Y-103322069D01*
X91246666Y-103322069D02*
X91389523Y-103369688D01*
X91389523Y-103369688D02*
X91437142Y-103417307D01*
X92389523Y-104322069D02*
X91818095Y-104322069D01*
X92103809Y-104322069D02*
X92103809Y-103322069D01*
X92103809Y-103322069D02*
X92008571Y-103464926D01*
X92008571Y-103464926D02*
X91913333Y-103560164D01*
X91913333Y-103560164D02*
X91818095Y-103607783D01*
X93008571Y-103322069D02*
X93103809Y-103322069D01*
X93103809Y-103322069D02*
X93199047Y-103369688D01*
X93199047Y-103369688D02*
X93246666Y-103417307D01*
X93246666Y-103417307D02*
X93294285Y-103512545D01*
X93294285Y-103512545D02*
X93341904Y-103703021D01*
X93341904Y-103703021D02*
X93341904Y-103941116D01*
X93341904Y-103941116D02*
X93294285Y-104131592D01*
X93294285Y-104131592D02*
X93246666Y-104226830D01*
X93246666Y-104226830D02*
X93199047Y-104274450D01*
X93199047Y-104274450D02*
X93103809Y-104322069D01*
X93103809Y-104322069D02*
X93008571Y-104322069D01*
X93008571Y-104322069D02*
X92913333Y-104274450D01*
X92913333Y-104274450D02*
X92865714Y-104226830D01*
X92865714Y-104226830D02*
X92818095Y-104131592D01*
X92818095Y-104131592D02*
X92770476Y-103941116D01*
X92770476Y-103941116D02*
X92770476Y-103703021D01*
X92770476Y-103703021D02*
X92818095Y-103512545D01*
X92818095Y-103512545D02*
X92865714Y-103417307D01*
X92865714Y-103417307D02*
X92913333Y-103369688D01*
X92913333Y-103369688D02*
X93008571Y-103322069D01*
X265453905Y-114246819D02*
X265453905Y-113246819D01*
X265453905Y-113246819D02*
X265692000Y-113246819D01*
X265692000Y-113246819D02*
X265834857Y-113294438D01*
X265834857Y-113294438D02*
X265930095Y-113389676D01*
X265930095Y-113389676D02*
X265977714Y-113484914D01*
X265977714Y-113484914D02*
X266025333Y-113675390D01*
X266025333Y-113675390D02*
X266025333Y-113818247D01*
X266025333Y-113818247D02*
X265977714Y-114008723D01*
X265977714Y-114008723D02*
X265930095Y-114103961D01*
X265930095Y-114103961D02*
X265834857Y-114199200D01*
X265834857Y-114199200D02*
X265692000Y-114246819D01*
X265692000Y-114246819D02*
X265453905Y-114246819D01*
X266358667Y-113246819D02*
X266977714Y-113246819D01*
X266977714Y-113246819D02*
X266644381Y-113627771D01*
X266644381Y-113627771D02*
X266787238Y-113627771D01*
X266787238Y-113627771D02*
X266882476Y-113675390D01*
X266882476Y-113675390D02*
X266930095Y-113723009D01*
X266930095Y-113723009D02*
X266977714Y-113818247D01*
X266977714Y-113818247D02*
X266977714Y-114056342D01*
X266977714Y-114056342D02*
X266930095Y-114151580D01*
X266930095Y-114151580D02*
X266882476Y-114199200D01*
X266882476Y-114199200D02*
X266787238Y-114246819D01*
X266787238Y-114246819D02*
X266501524Y-114246819D01*
X266501524Y-114246819D02*
X266406286Y-114199200D01*
X266406286Y-114199200D02*
X266358667Y-114151580D01*
X124128285Y-16970009D02*
X124271142Y-17017628D01*
X124271142Y-17017628D02*
X124318761Y-17065247D01*
X124318761Y-17065247D02*
X124366380Y-17160485D01*
X124366380Y-17160485D02*
X124366380Y-17303342D01*
X124366380Y-17303342D02*
X124318761Y-17398580D01*
X124318761Y-17398580D02*
X124271142Y-17446200D01*
X124271142Y-17446200D02*
X124175904Y-17493819D01*
X124175904Y-17493819D02*
X123794952Y-17493819D01*
X123794952Y-17493819D02*
X123794952Y-16493819D01*
X123794952Y-16493819D02*
X124128285Y-16493819D01*
X124128285Y-16493819D02*
X124223523Y-16541438D01*
X124223523Y-16541438D02*
X124271142Y-16589057D01*
X124271142Y-16589057D02*
X124318761Y-16684295D01*
X124318761Y-16684295D02*
X124318761Y-16779533D01*
X124318761Y-16779533D02*
X124271142Y-16874771D01*
X124271142Y-16874771D02*
X124223523Y-16922390D01*
X124223523Y-16922390D02*
X124128285Y-16970009D01*
X124128285Y-16970009D02*
X123794952Y-16970009D01*
X124652095Y-16493819D02*
X125223523Y-16493819D01*
X124937809Y-17493819D02*
X124937809Y-16493819D01*
X126080666Y-17493819D02*
X125509238Y-17493819D01*
X125794952Y-17493819D02*
X125794952Y-16493819D01*
X125794952Y-16493819D02*
X125699714Y-16636676D01*
X125699714Y-16636676D02*
X125604476Y-16731914D01*
X125604476Y-16731914D02*
X125509238Y-16779533D01*
X270223666Y-22821819D02*
X270223666Y-23536104D01*
X270223666Y-23536104D02*
X270176047Y-23678961D01*
X270176047Y-23678961D02*
X270080809Y-23774200D01*
X270080809Y-23774200D02*
X269937952Y-23821819D01*
X269937952Y-23821819D02*
X269842714Y-23821819D01*
X271223666Y-23821819D02*
X270652238Y-23821819D01*
X270937952Y-23821819D02*
X270937952Y-22821819D01*
X270937952Y-22821819D02*
X270842714Y-22964676D01*
X270842714Y-22964676D02*
X270747476Y-23059914D01*
X270747476Y-23059914D02*
X270652238Y-23107533D01*
X235578666Y-36305819D02*
X235578666Y-37020104D01*
X235578666Y-37020104D02*
X235531047Y-37162961D01*
X235531047Y-37162961D02*
X235435809Y-37258200D01*
X235435809Y-37258200D02*
X235292952Y-37305819D01*
X235292952Y-37305819D02*
X235197714Y-37305819D01*
X236007238Y-36401057D02*
X236054857Y-36353438D01*
X236054857Y-36353438D02*
X236150095Y-36305819D01*
X236150095Y-36305819D02*
X236388190Y-36305819D01*
X236388190Y-36305819D02*
X236483428Y-36353438D01*
X236483428Y-36353438D02*
X236531047Y-36401057D01*
X236531047Y-36401057D02*
X236578666Y-36496295D01*
X236578666Y-36496295D02*
X236578666Y-36591533D01*
X236578666Y-36591533D02*
X236531047Y-36734390D01*
X236531047Y-36734390D02*
X235959619Y-37305819D01*
X235959619Y-37305819D02*
X236578666Y-37305819D01*
X172111333Y-28651580D02*
X172063714Y-28699200D01*
X172063714Y-28699200D02*
X171920857Y-28746819D01*
X171920857Y-28746819D02*
X171825619Y-28746819D01*
X171825619Y-28746819D02*
X171682762Y-28699200D01*
X171682762Y-28699200D02*
X171587524Y-28603961D01*
X171587524Y-28603961D02*
X171539905Y-28508723D01*
X171539905Y-28508723D02*
X171492286Y-28318247D01*
X171492286Y-28318247D02*
X171492286Y-28175390D01*
X171492286Y-28175390D02*
X171539905Y-27984914D01*
X171539905Y-27984914D02*
X171587524Y-27889676D01*
X171587524Y-27889676D02*
X171682762Y-27794438D01*
X171682762Y-27794438D02*
X171825619Y-27746819D01*
X171825619Y-27746819D02*
X171920857Y-27746819D01*
X171920857Y-27746819D02*
X172063714Y-27794438D01*
X172063714Y-27794438D02*
X172111333Y-27842057D01*
X172492286Y-27842057D02*
X172539905Y-27794438D01*
X172539905Y-27794438D02*
X172635143Y-27746819D01*
X172635143Y-27746819D02*
X172873238Y-27746819D01*
X172873238Y-27746819D02*
X172968476Y-27794438D01*
X172968476Y-27794438D02*
X173016095Y-27842057D01*
X173016095Y-27842057D02*
X173063714Y-27937295D01*
X173063714Y-27937295D02*
X173063714Y-28032533D01*
X173063714Y-28032533D02*
X173016095Y-28175390D01*
X173016095Y-28175390D02*
X172444667Y-28746819D01*
X172444667Y-28746819D02*
X173063714Y-28746819D01*
X171095333Y-38684580D02*
X171047714Y-38732200D01*
X171047714Y-38732200D02*
X170904857Y-38779819D01*
X170904857Y-38779819D02*
X170809619Y-38779819D01*
X170809619Y-38779819D02*
X170666762Y-38732200D01*
X170666762Y-38732200D02*
X170571524Y-38636961D01*
X170571524Y-38636961D02*
X170523905Y-38541723D01*
X170523905Y-38541723D02*
X170476286Y-38351247D01*
X170476286Y-38351247D02*
X170476286Y-38208390D01*
X170476286Y-38208390D02*
X170523905Y-38017914D01*
X170523905Y-38017914D02*
X170571524Y-37922676D01*
X170571524Y-37922676D02*
X170666762Y-37827438D01*
X170666762Y-37827438D02*
X170809619Y-37779819D01*
X170809619Y-37779819D02*
X170904857Y-37779819D01*
X170904857Y-37779819D02*
X171047714Y-37827438D01*
X171047714Y-37827438D02*
X171095333Y-37875057D01*
X171952476Y-38113152D02*
X171952476Y-38779819D01*
X171714381Y-37732200D02*
X171476286Y-38446485D01*
X171476286Y-38446485D02*
X172095333Y-38446485D01*
X257224142Y-136345819D02*
X256890809Y-135869628D01*
X256652714Y-136345819D02*
X256652714Y-135345819D01*
X256652714Y-135345819D02*
X257033666Y-135345819D01*
X257033666Y-135345819D02*
X257128904Y-135393438D01*
X257128904Y-135393438D02*
X257176523Y-135441057D01*
X257176523Y-135441057D02*
X257224142Y-135536295D01*
X257224142Y-135536295D02*
X257224142Y-135679152D01*
X257224142Y-135679152D02*
X257176523Y-135774390D01*
X257176523Y-135774390D02*
X257128904Y-135822009D01*
X257128904Y-135822009D02*
X257033666Y-135869628D01*
X257033666Y-135869628D02*
X256652714Y-135869628D01*
X258176523Y-136345819D02*
X257605095Y-136345819D01*
X257890809Y-136345819D02*
X257890809Y-135345819D01*
X257890809Y-135345819D02*
X257795571Y-135488676D01*
X257795571Y-135488676D02*
X257700333Y-135583914D01*
X257700333Y-135583914D02*
X257605095Y-135631533D01*
X258509857Y-135345819D02*
X259176523Y-135345819D01*
X259176523Y-135345819D02*
X258747952Y-136345819D01*
X260942831Y-90625819D02*
X260609498Y-90149628D01*
X260371403Y-90625819D02*
X260371403Y-89625819D01*
X260371403Y-89625819D02*
X260752355Y-89625819D01*
X260752355Y-89625819D02*
X260847593Y-89673438D01*
X260847593Y-89673438D02*
X260895212Y-89721057D01*
X260895212Y-89721057D02*
X260942831Y-89816295D01*
X260942831Y-89816295D02*
X260942831Y-89959152D01*
X260942831Y-89959152D02*
X260895212Y-90054390D01*
X260895212Y-90054390D02*
X260847593Y-90102009D01*
X260847593Y-90102009D02*
X260752355Y-90149628D01*
X260752355Y-90149628D02*
X260371403Y-90149628D01*
X261799974Y-89959152D02*
X261799974Y-90625819D01*
X261561879Y-89578200D02*
X261323784Y-90292485D01*
X261323784Y-90292485D02*
X261942831Y-90292485D01*
X257342833Y-151460580D02*
X257295214Y-151508200D01*
X257295214Y-151508200D02*
X257152357Y-151555819D01*
X257152357Y-151555819D02*
X257057119Y-151555819D01*
X257057119Y-151555819D02*
X256914262Y-151508200D01*
X256914262Y-151508200D02*
X256819024Y-151412961D01*
X256819024Y-151412961D02*
X256771405Y-151317723D01*
X256771405Y-151317723D02*
X256723786Y-151127247D01*
X256723786Y-151127247D02*
X256723786Y-150984390D01*
X256723786Y-150984390D02*
X256771405Y-150793914D01*
X256771405Y-150793914D02*
X256819024Y-150698676D01*
X256819024Y-150698676D02*
X256914262Y-150603438D01*
X256914262Y-150603438D02*
X257057119Y-150555819D01*
X257057119Y-150555819D02*
X257152357Y-150555819D01*
X257152357Y-150555819D02*
X257295214Y-150603438D01*
X257295214Y-150603438D02*
X257342833Y-150651057D01*
X257914262Y-150984390D02*
X257819024Y-150936771D01*
X257819024Y-150936771D02*
X257771405Y-150889152D01*
X257771405Y-150889152D02*
X257723786Y-150793914D01*
X257723786Y-150793914D02*
X257723786Y-150746295D01*
X257723786Y-150746295D02*
X257771405Y-150651057D01*
X257771405Y-150651057D02*
X257819024Y-150603438D01*
X257819024Y-150603438D02*
X257914262Y-150555819D01*
X257914262Y-150555819D02*
X258104738Y-150555819D01*
X258104738Y-150555819D02*
X258199976Y-150603438D01*
X258199976Y-150603438D02*
X258247595Y-150651057D01*
X258247595Y-150651057D02*
X258295214Y-150746295D01*
X258295214Y-150746295D02*
X258295214Y-150793914D01*
X258295214Y-150793914D02*
X258247595Y-150889152D01*
X258247595Y-150889152D02*
X258199976Y-150936771D01*
X258199976Y-150936771D02*
X258104738Y-150984390D01*
X258104738Y-150984390D02*
X257914262Y-150984390D01*
X257914262Y-150984390D02*
X257819024Y-151032009D01*
X257819024Y-151032009D02*
X257771405Y-151079628D01*
X257771405Y-151079628D02*
X257723786Y-151174866D01*
X257723786Y-151174866D02*
X257723786Y-151365342D01*
X257723786Y-151365342D02*
X257771405Y-151460580D01*
X257771405Y-151460580D02*
X257819024Y-151508200D01*
X257819024Y-151508200D02*
X257914262Y-151555819D01*
X257914262Y-151555819D02*
X258104738Y-151555819D01*
X258104738Y-151555819D02*
X258199976Y-151508200D01*
X258199976Y-151508200D02*
X258247595Y-151460580D01*
X258247595Y-151460580D02*
X258295214Y-151365342D01*
X258295214Y-151365342D02*
X258295214Y-151174866D01*
X258295214Y-151174866D02*
X258247595Y-151079628D01*
X258247595Y-151079628D02*
X258199976Y-151032009D01*
X258199976Y-151032009D02*
X258104738Y-150984390D01*
D11*
X139073905Y-114754694D02*
X139073905Y-113754694D01*
X139073905Y-113754694D02*
X139454857Y-113754694D01*
X139454857Y-113754694D02*
X139550095Y-113802313D01*
X139550095Y-113802313D02*
X139597714Y-113849932D01*
X139597714Y-113849932D02*
X139645333Y-113945170D01*
X139645333Y-113945170D02*
X139645333Y-114088027D01*
X139645333Y-114088027D02*
X139597714Y-114183265D01*
X139597714Y-114183265D02*
X139550095Y-114230884D01*
X139550095Y-114230884D02*
X139454857Y-114278503D01*
X139454857Y-114278503D02*
X139073905Y-114278503D01*
X140597714Y-114754694D02*
X140026286Y-114754694D01*
X140312000Y-114754694D02*
X140312000Y-113754694D01*
X140312000Y-113754694D02*
X140216762Y-113897551D01*
X140216762Y-113897551D02*
X140121524Y-113992789D01*
X140121524Y-113992789D02*
X140026286Y-114040408D01*
D10*
X215695333Y-53795819D02*
X215362000Y-53319628D01*
X215123905Y-53795819D02*
X215123905Y-52795819D01*
X215123905Y-52795819D02*
X215504857Y-52795819D01*
X215504857Y-52795819D02*
X215600095Y-52843438D01*
X215600095Y-52843438D02*
X215647714Y-52891057D01*
X215647714Y-52891057D02*
X215695333Y-52986295D01*
X215695333Y-52986295D02*
X215695333Y-53129152D01*
X215695333Y-53129152D02*
X215647714Y-53224390D01*
X215647714Y-53224390D02*
X215600095Y-53272009D01*
X215600095Y-53272009D02*
X215504857Y-53319628D01*
X215504857Y-53319628D02*
X215123905Y-53319628D01*
X216076286Y-52891057D02*
X216123905Y-52843438D01*
X216123905Y-52843438D02*
X216219143Y-52795819D01*
X216219143Y-52795819D02*
X216457238Y-52795819D01*
X216457238Y-52795819D02*
X216552476Y-52843438D01*
X216552476Y-52843438D02*
X216600095Y-52891057D01*
X216600095Y-52891057D02*
X216647714Y-52986295D01*
X216647714Y-52986295D02*
X216647714Y-53081533D01*
X216647714Y-53081533D02*
X216600095Y-53224390D01*
X216600095Y-53224390D02*
X216028667Y-53795819D01*
X216028667Y-53795819D02*
X216647714Y-53795819D01*
X195754666Y-61399009D02*
X195421333Y-61399009D01*
X195421333Y-61922819D02*
X195421333Y-60922819D01*
X195421333Y-60922819D02*
X195897523Y-60922819D01*
X196802285Y-61922819D02*
X196230857Y-61922819D01*
X196516571Y-61922819D02*
X196516571Y-60922819D01*
X196516571Y-60922819D02*
X196421333Y-61065676D01*
X196421333Y-61065676D02*
X196326095Y-61160914D01*
X196326095Y-61160914D02*
X196230857Y-61208533D01*
X201850666Y-10122819D02*
X201850666Y-10837104D01*
X201850666Y-10837104D02*
X201803047Y-10979961D01*
X201803047Y-10979961D02*
X201707809Y-11075200D01*
X201707809Y-11075200D02*
X201564952Y-11122819D01*
X201564952Y-11122819D02*
X201469714Y-11122819D01*
X202755428Y-10456152D02*
X202755428Y-11122819D01*
X202517333Y-10075200D02*
X202279238Y-10789485D01*
X202279238Y-10789485D02*
X202898285Y-10789485D01*
X192477833Y-45540819D02*
X192144500Y-45064628D01*
X191906405Y-45540819D02*
X191906405Y-44540819D01*
X191906405Y-44540819D02*
X192287357Y-44540819D01*
X192287357Y-44540819D02*
X192382595Y-44588438D01*
X192382595Y-44588438D02*
X192430214Y-44636057D01*
X192430214Y-44636057D02*
X192477833Y-44731295D01*
X192477833Y-44731295D02*
X192477833Y-44874152D01*
X192477833Y-44874152D02*
X192430214Y-44969390D01*
X192430214Y-44969390D02*
X192382595Y-45017009D01*
X192382595Y-45017009D02*
X192287357Y-45064628D01*
X192287357Y-45064628D02*
X191906405Y-45064628D01*
X193334976Y-44540819D02*
X193144500Y-44540819D01*
X193144500Y-44540819D02*
X193049262Y-44588438D01*
X193049262Y-44588438D02*
X193001643Y-44636057D01*
X193001643Y-44636057D02*
X192906405Y-44778914D01*
X192906405Y-44778914D02*
X192858786Y-44969390D01*
X192858786Y-44969390D02*
X192858786Y-45350342D01*
X192858786Y-45350342D02*
X192906405Y-45445580D01*
X192906405Y-45445580D02*
X192954024Y-45493200D01*
X192954024Y-45493200D02*
X193049262Y-45540819D01*
X193049262Y-45540819D02*
X193239738Y-45540819D01*
X193239738Y-45540819D02*
X193334976Y-45493200D01*
X193334976Y-45493200D02*
X193382595Y-45445580D01*
X193382595Y-45445580D02*
X193430214Y-45350342D01*
X193430214Y-45350342D02*
X193430214Y-45112247D01*
X193430214Y-45112247D02*
X193382595Y-45017009D01*
X193382595Y-45017009D02*
X193334976Y-44969390D01*
X193334976Y-44969390D02*
X193239738Y-44921771D01*
X193239738Y-44921771D02*
X193049262Y-44921771D01*
X193049262Y-44921771D02*
X192954024Y-44969390D01*
X192954024Y-44969390D02*
X192906405Y-45017009D01*
X192906405Y-45017009D02*
X192858786Y-45112247D01*
X113045642Y-90868069D02*
X112712309Y-90391878D01*
X112474214Y-90868069D02*
X112474214Y-89868069D01*
X112474214Y-89868069D02*
X112855166Y-89868069D01*
X112855166Y-89868069D02*
X112950404Y-89915688D01*
X112950404Y-89915688D02*
X112998023Y-89963307D01*
X112998023Y-89963307D02*
X113045642Y-90058545D01*
X113045642Y-90058545D02*
X113045642Y-90201402D01*
X113045642Y-90201402D02*
X112998023Y-90296640D01*
X112998023Y-90296640D02*
X112950404Y-90344259D01*
X112950404Y-90344259D02*
X112855166Y-90391878D01*
X112855166Y-90391878D02*
X112474214Y-90391878D01*
X113998023Y-90868069D02*
X113426595Y-90868069D01*
X113712309Y-90868069D02*
X113712309Y-89868069D01*
X113712309Y-89868069D02*
X113617071Y-90010926D01*
X113617071Y-90010926D02*
X113521833Y-90106164D01*
X113521833Y-90106164D02*
X113426595Y-90153783D01*
X114902785Y-89868069D02*
X114426595Y-89868069D01*
X114426595Y-89868069D02*
X114378976Y-90344259D01*
X114378976Y-90344259D02*
X114426595Y-90296640D01*
X114426595Y-90296640D02*
X114521833Y-90249021D01*
X114521833Y-90249021D02*
X114759928Y-90249021D01*
X114759928Y-90249021D02*
X114855166Y-90296640D01*
X114855166Y-90296640D02*
X114902785Y-90344259D01*
X114902785Y-90344259D02*
X114950404Y-90439497D01*
X114950404Y-90439497D02*
X114950404Y-90677592D01*
X114950404Y-90677592D02*
X114902785Y-90772830D01*
X114902785Y-90772830D02*
X114855166Y-90820450D01*
X114855166Y-90820450D02*
X114759928Y-90868069D01*
X114759928Y-90868069D02*
X114521833Y-90868069D01*
X114521833Y-90868069D02*
X114426595Y-90820450D01*
X114426595Y-90820450D02*
X114378976Y-90772830D01*
X214488905Y-60145819D02*
X214488905Y-59145819D01*
X214488905Y-59145819D02*
X214727000Y-59145819D01*
X214727000Y-59145819D02*
X214869857Y-59193438D01*
X214869857Y-59193438D02*
X214965095Y-59288676D01*
X214965095Y-59288676D02*
X215012714Y-59383914D01*
X215012714Y-59383914D02*
X215060333Y-59574390D01*
X215060333Y-59574390D02*
X215060333Y-59717247D01*
X215060333Y-59717247D02*
X215012714Y-59907723D01*
X215012714Y-59907723D02*
X214965095Y-60002961D01*
X214965095Y-60002961D02*
X214869857Y-60098200D01*
X214869857Y-60098200D02*
X214727000Y-60145819D01*
X214727000Y-60145819D02*
X214488905Y-60145819D01*
X216012714Y-60145819D02*
X215441286Y-60145819D01*
X215727000Y-60145819D02*
X215727000Y-59145819D01*
X215727000Y-59145819D02*
X215631762Y-59288676D01*
X215631762Y-59288676D02*
X215536524Y-59383914D01*
X215536524Y-59383914D02*
X215441286Y-59431533D01*
X151217333Y-24330819D02*
X150884000Y-23854628D01*
X150645905Y-24330819D02*
X150645905Y-23330819D01*
X150645905Y-23330819D02*
X151026857Y-23330819D01*
X151026857Y-23330819D02*
X151122095Y-23378438D01*
X151122095Y-23378438D02*
X151169714Y-23426057D01*
X151169714Y-23426057D02*
X151217333Y-23521295D01*
X151217333Y-23521295D02*
X151217333Y-23664152D01*
X151217333Y-23664152D02*
X151169714Y-23759390D01*
X151169714Y-23759390D02*
X151122095Y-23807009D01*
X151122095Y-23807009D02*
X151026857Y-23854628D01*
X151026857Y-23854628D02*
X150645905Y-23854628D01*
X151693524Y-24330819D02*
X151884000Y-24330819D01*
X151884000Y-24330819D02*
X151979238Y-24283200D01*
X151979238Y-24283200D02*
X152026857Y-24235580D01*
X152026857Y-24235580D02*
X152122095Y-24092723D01*
X152122095Y-24092723D02*
X152169714Y-23902247D01*
X152169714Y-23902247D02*
X152169714Y-23521295D01*
X152169714Y-23521295D02*
X152122095Y-23426057D01*
X152122095Y-23426057D02*
X152074476Y-23378438D01*
X152074476Y-23378438D02*
X151979238Y-23330819D01*
X151979238Y-23330819D02*
X151788762Y-23330819D01*
X151788762Y-23330819D02*
X151693524Y-23378438D01*
X151693524Y-23378438D02*
X151645905Y-23426057D01*
X151645905Y-23426057D02*
X151598286Y-23521295D01*
X151598286Y-23521295D02*
X151598286Y-23759390D01*
X151598286Y-23759390D02*
X151645905Y-23854628D01*
X151645905Y-23854628D02*
X151693524Y-23902247D01*
X151693524Y-23902247D02*
X151788762Y-23949866D01*
X151788762Y-23949866D02*
X151979238Y-23949866D01*
X151979238Y-23949866D02*
X152074476Y-23902247D01*
X152074476Y-23902247D02*
X152122095Y-23854628D01*
X152122095Y-23854628D02*
X152169714Y-23759390D01*
X234465095Y-104380819D02*
X234465095Y-105190342D01*
X234465095Y-105190342D02*
X234512714Y-105285580D01*
X234512714Y-105285580D02*
X234560333Y-105333200D01*
X234560333Y-105333200D02*
X234655571Y-105380819D01*
X234655571Y-105380819D02*
X234846047Y-105380819D01*
X234846047Y-105380819D02*
X234941285Y-105333200D01*
X234941285Y-105333200D02*
X234988904Y-105285580D01*
X234988904Y-105285580D02*
X235036523Y-105190342D01*
X235036523Y-105190342D02*
X235036523Y-104380819D01*
X235465095Y-104476057D02*
X235512714Y-104428438D01*
X235512714Y-104428438D02*
X235607952Y-104380819D01*
X235607952Y-104380819D02*
X235846047Y-104380819D01*
X235846047Y-104380819D02*
X235941285Y-104428438D01*
X235941285Y-104428438D02*
X235988904Y-104476057D01*
X235988904Y-104476057D02*
X236036523Y-104571295D01*
X236036523Y-104571295D02*
X236036523Y-104666533D01*
X236036523Y-104666533D02*
X235988904Y-104809390D01*
X235988904Y-104809390D02*
X235417476Y-105380819D01*
X235417476Y-105380819D02*
X236036523Y-105380819D01*
X248810333Y-131645819D02*
X248477000Y-131169628D01*
X248238905Y-131645819D02*
X248238905Y-130645819D01*
X248238905Y-130645819D02*
X248619857Y-130645819D01*
X248619857Y-130645819D02*
X248715095Y-130693438D01*
X248715095Y-130693438D02*
X248762714Y-130741057D01*
X248762714Y-130741057D02*
X248810333Y-130836295D01*
X248810333Y-130836295D02*
X248810333Y-130979152D01*
X248810333Y-130979152D02*
X248762714Y-131074390D01*
X248762714Y-131074390D02*
X248715095Y-131122009D01*
X248715095Y-131122009D02*
X248619857Y-131169628D01*
X248619857Y-131169628D02*
X248238905Y-131169628D01*
X249143667Y-130645819D02*
X249762714Y-130645819D01*
X249762714Y-130645819D02*
X249429381Y-131026771D01*
X249429381Y-131026771D02*
X249572238Y-131026771D01*
X249572238Y-131026771D02*
X249667476Y-131074390D01*
X249667476Y-131074390D02*
X249715095Y-131122009D01*
X249715095Y-131122009D02*
X249762714Y-131217247D01*
X249762714Y-131217247D02*
X249762714Y-131455342D01*
X249762714Y-131455342D02*
X249715095Y-131550580D01*
X249715095Y-131550580D02*
X249667476Y-131598200D01*
X249667476Y-131598200D02*
X249572238Y-131645819D01*
X249572238Y-131645819D02*
X249286524Y-131645819D01*
X249286524Y-131645819D02*
X249191286Y-131598200D01*
X249191286Y-131598200D02*
X249143667Y-131550580D01*
X91709642Y-87432069D02*
X91376309Y-86955878D01*
X91138214Y-87432069D02*
X91138214Y-86432069D01*
X91138214Y-86432069D02*
X91519166Y-86432069D01*
X91519166Y-86432069D02*
X91614404Y-86479688D01*
X91614404Y-86479688D02*
X91662023Y-86527307D01*
X91662023Y-86527307D02*
X91709642Y-86622545D01*
X91709642Y-86622545D02*
X91709642Y-86765402D01*
X91709642Y-86765402D02*
X91662023Y-86860640D01*
X91662023Y-86860640D02*
X91614404Y-86908259D01*
X91614404Y-86908259D02*
X91519166Y-86955878D01*
X91519166Y-86955878D02*
X91138214Y-86955878D01*
X92662023Y-87432069D02*
X92090595Y-87432069D01*
X92376309Y-87432069D02*
X92376309Y-86432069D01*
X92376309Y-86432069D02*
X92281071Y-86574926D01*
X92281071Y-86574926D02*
X92185833Y-86670164D01*
X92185833Y-86670164D02*
X92090595Y-86717783D01*
X93519166Y-86765402D02*
X93519166Y-87432069D01*
X93281071Y-86384450D02*
X93042976Y-87098735D01*
X93042976Y-87098735D02*
X93662023Y-87098735D01*
X160981642Y-24330819D02*
X160648309Y-23854628D01*
X160410214Y-24330819D02*
X160410214Y-23330819D01*
X160410214Y-23330819D02*
X160791166Y-23330819D01*
X160791166Y-23330819D02*
X160886404Y-23378438D01*
X160886404Y-23378438D02*
X160934023Y-23426057D01*
X160934023Y-23426057D02*
X160981642Y-23521295D01*
X160981642Y-23521295D02*
X160981642Y-23664152D01*
X160981642Y-23664152D02*
X160934023Y-23759390D01*
X160934023Y-23759390D02*
X160886404Y-23807009D01*
X160886404Y-23807009D02*
X160791166Y-23854628D01*
X160791166Y-23854628D02*
X160410214Y-23854628D01*
X161934023Y-24330819D02*
X161362595Y-24330819D01*
X161648309Y-24330819D02*
X161648309Y-23330819D01*
X161648309Y-23330819D02*
X161553071Y-23473676D01*
X161553071Y-23473676D02*
X161457833Y-23568914D01*
X161457833Y-23568914D02*
X161362595Y-23616533D01*
X162886404Y-24330819D02*
X162314976Y-24330819D01*
X162600690Y-24330819D02*
X162600690Y-23330819D01*
X162600690Y-23330819D02*
X162505452Y-23473676D01*
X162505452Y-23473676D02*
X162410214Y-23568914D01*
X162410214Y-23568914D02*
X162314976Y-23616533D01*
X267432833Y-105965819D02*
X266956643Y-105965819D01*
X266956643Y-105965819D02*
X266956643Y-104965819D01*
X267718548Y-105061057D02*
X267766167Y-105013438D01*
X267766167Y-105013438D02*
X267861405Y-104965819D01*
X267861405Y-104965819D02*
X268099500Y-104965819D01*
X268099500Y-104965819D02*
X268194738Y-105013438D01*
X268194738Y-105013438D02*
X268242357Y-105061057D01*
X268242357Y-105061057D02*
X268289976Y-105156295D01*
X268289976Y-105156295D02*
X268289976Y-105251533D01*
X268289976Y-105251533D02*
X268242357Y-105394390D01*
X268242357Y-105394390D02*
X267670929Y-105965819D01*
X267670929Y-105965819D02*
X268289976Y-105965819D01*
X105209083Y-101073330D02*
X105161464Y-101120950D01*
X105161464Y-101120950D02*
X105018607Y-101168569D01*
X105018607Y-101168569D02*
X104923369Y-101168569D01*
X104923369Y-101168569D02*
X104780512Y-101120950D01*
X104780512Y-101120950D02*
X104685274Y-101025711D01*
X104685274Y-101025711D02*
X104637655Y-100930473D01*
X104637655Y-100930473D02*
X104590036Y-100739997D01*
X104590036Y-100739997D02*
X104590036Y-100597140D01*
X104590036Y-100597140D02*
X104637655Y-100406664D01*
X104637655Y-100406664D02*
X104685274Y-100311426D01*
X104685274Y-100311426D02*
X104780512Y-100216188D01*
X104780512Y-100216188D02*
X104923369Y-100168569D01*
X104923369Y-100168569D02*
X105018607Y-100168569D01*
X105018607Y-100168569D02*
X105161464Y-100216188D01*
X105161464Y-100216188D02*
X105209083Y-100263807D01*
X105542417Y-100168569D02*
X106209083Y-100168569D01*
X106209083Y-100168569D02*
X105780512Y-101168569D01*
X266954095Y-81242819D02*
X266954095Y-82052342D01*
X266954095Y-82052342D02*
X267001714Y-82147580D01*
X267001714Y-82147580D02*
X267049333Y-82195200D01*
X267049333Y-82195200D02*
X267144571Y-82242819D01*
X267144571Y-82242819D02*
X267335047Y-82242819D01*
X267335047Y-82242819D02*
X267430285Y-82195200D01*
X267430285Y-82195200D02*
X267477904Y-82147580D01*
X267477904Y-82147580D02*
X267525523Y-82052342D01*
X267525523Y-82052342D02*
X267525523Y-81242819D01*
X268430285Y-81576152D02*
X268430285Y-82242819D01*
X268192190Y-81195200D02*
X267954095Y-81909485D01*
X267954095Y-81909485D02*
X268573142Y-81909485D01*
X253730286Y-77178819D02*
X254301714Y-77178819D01*
X254016000Y-78178819D02*
X254016000Y-77178819D01*
X254635048Y-78178819D02*
X254635048Y-77178819D01*
X254635048Y-77655009D02*
X255206476Y-77655009D01*
X255206476Y-78178819D02*
X255206476Y-77178819D01*
X256206476Y-78178819D02*
X255635048Y-78178819D01*
X255920762Y-78178819D02*
X255920762Y-77178819D01*
X255920762Y-77178819D02*
X255825524Y-77321676D01*
X255825524Y-77321676D02*
X255730286Y-77416914D01*
X255730286Y-77416914D02*
X255635048Y-77464533D01*
X223196642Y-44270819D02*
X222863309Y-43794628D01*
X222625214Y-44270819D02*
X222625214Y-43270819D01*
X222625214Y-43270819D02*
X223006166Y-43270819D01*
X223006166Y-43270819D02*
X223101404Y-43318438D01*
X223101404Y-43318438D02*
X223149023Y-43366057D01*
X223149023Y-43366057D02*
X223196642Y-43461295D01*
X223196642Y-43461295D02*
X223196642Y-43604152D01*
X223196642Y-43604152D02*
X223149023Y-43699390D01*
X223149023Y-43699390D02*
X223101404Y-43747009D01*
X223101404Y-43747009D02*
X223006166Y-43794628D01*
X223006166Y-43794628D02*
X222625214Y-43794628D01*
X224149023Y-44270819D02*
X223577595Y-44270819D01*
X223863309Y-44270819D02*
X223863309Y-43270819D01*
X223863309Y-43270819D02*
X223768071Y-43413676D01*
X223768071Y-43413676D02*
X223672833Y-43508914D01*
X223672833Y-43508914D02*
X223577595Y-43556533D01*
X225006166Y-43270819D02*
X224815690Y-43270819D01*
X224815690Y-43270819D02*
X224720452Y-43318438D01*
X224720452Y-43318438D02*
X224672833Y-43366057D01*
X224672833Y-43366057D02*
X224577595Y-43508914D01*
X224577595Y-43508914D02*
X224529976Y-43699390D01*
X224529976Y-43699390D02*
X224529976Y-44080342D01*
X224529976Y-44080342D02*
X224577595Y-44175580D01*
X224577595Y-44175580D02*
X224625214Y-44223200D01*
X224625214Y-44223200D02*
X224720452Y-44270819D01*
X224720452Y-44270819D02*
X224910928Y-44270819D01*
X224910928Y-44270819D02*
X225006166Y-44223200D01*
X225006166Y-44223200D02*
X225053785Y-44175580D01*
X225053785Y-44175580D02*
X225101404Y-44080342D01*
X225101404Y-44080342D02*
X225101404Y-43842247D01*
X225101404Y-43842247D02*
X225053785Y-43747009D01*
X225053785Y-43747009D02*
X225006166Y-43699390D01*
X225006166Y-43699390D02*
X224910928Y-43651771D01*
X224910928Y-43651771D02*
X224720452Y-43651771D01*
X224720452Y-43651771D02*
X224625214Y-43699390D01*
X224625214Y-43699390D02*
X224577595Y-43747009D01*
X224577595Y-43747009D02*
X224529976Y-43842247D01*
X257859142Y-131390819D02*
X257525809Y-130914628D01*
X257287714Y-131390819D02*
X257287714Y-130390819D01*
X257287714Y-130390819D02*
X257668666Y-130390819D01*
X257668666Y-130390819D02*
X257763904Y-130438438D01*
X257763904Y-130438438D02*
X257811523Y-130486057D01*
X257811523Y-130486057D02*
X257859142Y-130581295D01*
X257859142Y-130581295D02*
X257859142Y-130724152D01*
X257859142Y-130724152D02*
X257811523Y-130819390D01*
X257811523Y-130819390D02*
X257763904Y-130867009D01*
X257763904Y-130867009D02*
X257668666Y-130914628D01*
X257668666Y-130914628D02*
X257287714Y-130914628D01*
X258811523Y-131390819D02*
X258240095Y-131390819D01*
X258525809Y-131390819D02*
X258525809Y-130390819D01*
X258525809Y-130390819D02*
X258430571Y-130533676D01*
X258430571Y-130533676D02*
X258335333Y-130628914D01*
X258335333Y-130628914D02*
X258240095Y-130676533D01*
X259382952Y-130819390D02*
X259287714Y-130771771D01*
X259287714Y-130771771D02*
X259240095Y-130724152D01*
X259240095Y-130724152D02*
X259192476Y-130628914D01*
X259192476Y-130628914D02*
X259192476Y-130581295D01*
X259192476Y-130581295D02*
X259240095Y-130486057D01*
X259240095Y-130486057D02*
X259287714Y-130438438D01*
X259287714Y-130438438D02*
X259382952Y-130390819D01*
X259382952Y-130390819D02*
X259573428Y-130390819D01*
X259573428Y-130390819D02*
X259668666Y-130438438D01*
X259668666Y-130438438D02*
X259716285Y-130486057D01*
X259716285Y-130486057D02*
X259763904Y-130581295D01*
X259763904Y-130581295D02*
X259763904Y-130628914D01*
X259763904Y-130628914D02*
X259716285Y-130724152D01*
X259716285Y-130724152D02*
X259668666Y-130771771D01*
X259668666Y-130771771D02*
X259573428Y-130819390D01*
X259573428Y-130819390D02*
X259382952Y-130819390D01*
X259382952Y-130819390D02*
X259287714Y-130867009D01*
X259287714Y-130867009D02*
X259240095Y-130914628D01*
X259240095Y-130914628D02*
X259192476Y-131009866D01*
X259192476Y-131009866D02*
X259192476Y-131200342D01*
X259192476Y-131200342D02*
X259240095Y-131295580D01*
X259240095Y-131295580D02*
X259287714Y-131343200D01*
X259287714Y-131343200D02*
X259382952Y-131390819D01*
X259382952Y-131390819D02*
X259573428Y-131390819D01*
X259573428Y-131390819D02*
X259668666Y-131343200D01*
X259668666Y-131343200D02*
X259716285Y-131295580D01*
X259716285Y-131295580D02*
X259763904Y-131200342D01*
X259763904Y-131200342D02*
X259763904Y-131009866D01*
X259763904Y-131009866D02*
X259716285Y-130914628D01*
X259716285Y-130914628D02*
X259668666Y-130867009D01*
X259668666Y-130867009D02*
X259573428Y-130819390D01*
X104917642Y-91260819D02*
X104584309Y-90784628D01*
X104346214Y-91260819D02*
X104346214Y-90260819D01*
X104346214Y-90260819D02*
X104727166Y-90260819D01*
X104727166Y-90260819D02*
X104822404Y-90308438D01*
X104822404Y-90308438D02*
X104870023Y-90356057D01*
X104870023Y-90356057D02*
X104917642Y-90451295D01*
X104917642Y-90451295D02*
X104917642Y-90594152D01*
X104917642Y-90594152D02*
X104870023Y-90689390D01*
X104870023Y-90689390D02*
X104822404Y-90737009D01*
X104822404Y-90737009D02*
X104727166Y-90784628D01*
X104727166Y-90784628D02*
X104346214Y-90784628D01*
X105870023Y-91260819D02*
X105298595Y-91260819D01*
X105584309Y-91260819D02*
X105584309Y-90260819D01*
X105584309Y-90260819D02*
X105489071Y-90403676D01*
X105489071Y-90403676D02*
X105393833Y-90498914D01*
X105393833Y-90498914D02*
X105298595Y-90546533D01*
X106203357Y-90260819D02*
X106822404Y-90260819D01*
X106822404Y-90260819D02*
X106489071Y-90641771D01*
X106489071Y-90641771D02*
X106631928Y-90641771D01*
X106631928Y-90641771D02*
X106727166Y-90689390D01*
X106727166Y-90689390D02*
X106774785Y-90737009D01*
X106774785Y-90737009D02*
X106822404Y-90832247D01*
X106822404Y-90832247D02*
X106822404Y-91070342D01*
X106822404Y-91070342D02*
X106774785Y-91165580D01*
X106774785Y-91165580D02*
X106727166Y-91213200D01*
X106727166Y-91213200D02*
X106631928Y-91260819D01*
X106631928Y-91260819D02*
X106346214Y-91260819D01*
X106346214Y-91260819D02*
X106250976Y-91213200D01*
X106250976Y-91213200D02*
X106203357Y-91165580D01*
X211051642Y-46175819D02*
X210718309Y-45699628D01*
X210480214Y-46175819D02*
X210480214Y-45175819D01*
X210480214Y-45175819D02*
X210861166Y-45175819D01*
X210861166Y-45175819D02*
X210956404Y-45223438D01*
X210956404Y-45223438D02*
X211004023Y-45271057D01*
X211004023Y-45271057D02*
X211051642Y-45366295D01*
X211051642Y-45366295D02*
X211051642Y-45509152D01*
X211051642Y-45509152D02*
X211004023Y-45604390D01*
X211004023Y-45604390D02*
X210956404Y-45652009D01*
X210956404Y-45652009D02*
X210861166Y-45699628D01*
X210861166Y-45699628D02*
X210480214Y-45699628D01*
X212004023Y-46175819D02*
X211432595Y-46175819D01*
X211718309Y-46175819D02*
X211718309Y-45175819D01*
X211718309Y-45175819D02*
X211623071Y-45318676D01*
X211623071Y-45318676D02*
X211527833Y-45413914D01*
X211527833Y-45413914D02*
X211432595Y-45461533D01*
X212384976Y-45271057D02*
X212432595Y-45223438D01*
X212432595Y-45223438D02*
X212527833Y-45175819D01*
X212527833Y-45175819D02*
X212765928Y-45175819D01*
X212765928Y-45175819D02*
X212861166Y-45223438D01*
X212861166Y-45223438D02*
X212908785Y-45271057D01*
X212908785Y-45271057D02*
X212956404Y-45366295D01*
X212956404Y-45366295D02*
X212956404Y-45461533D01*
X212956404Y-45461533D02*
X212908785Y-45604390D01*
X212908785Y-45604390D02*
X212337357Y-46175819D01*
X212337357Y-46175819D02*
X212956404Y-46175819D01*
X92223333Y-97466830D02*
X92175714Y-97514450D01*
X92175714Y-97514450D02*
X92032857Y-97562069D01*
X92032857Y-97562069D02*
X91937619Y-97562069D01*
X91937619Y-97562069D02*
X91794762Y-97514450D01*
X91794762Y-97514450D02*
X91699524Y-97419211D01*
X91699524Y-97419211D02*
X91651905Y-97323973D01*
X91651905Y-97323973D02*
X91604286Y-97133497D01*
X91604286Y-97133497D02*
X91604286Y-96990640D01*
X91604286Y-96990640D02*
X91651905Y-96800164D01*
X91651905Y-96800164D02*
X91699524Y-96704926D01*
X91699524Y-96704926D02*
X91794762Y-96609688D01*
X91794762Y-96609688D02*
X91937619Y-96562069D01*
X91937619Y-96562069D02*
X92032857Y-96562069D01*
X92032857Y-96562069D02*
X92175714Y-96609688D01*
X92175714Y-96609688D02*
X92223333Y-96657307D01*
X92699524Y-97562069D02*
X92890000Y-97562069D01*
X92890000Y-97562069D02*
X92985238Y-97514450D01*
X92985238Y-97514450D02*
X93032857Y-97466830D01*
X93032857Y-97466830D02*
X93128095Y-97323973D01*
X93128095Y-97323973D02*
X93175714Y-97133497D01*
X93175714Y-97133497D02*
X93175714Y-96752545D01*
X93175714Y-96752545D02*
X93128095Y-96657307D01*
X93128095Y-96657307D02*
X93080476Y-96609688D01*
X93080476Y-96609688D02*
X92985238Y-96562069D01*
X92985238Y-96562069D02*
X92794762Y-96562069D01*
X92794762Y-96562069D02*
X92699524Y-96609688D01*
X92699524Y-96609688D02*
X92651905Y-96657307D01*
X92651905Y-96657307D02*
X92604286Y-96752545D01*
X92604286Y-96752545D02*
X92604286Y-96990640D01*
X92604286Y-96990640D02*
X92651905Y-97085878D01*
X92651905Y-97085878D02*
X92699524Y-97133497D01*
X92699524Y-97133497D02*
X92794762Y-97181116D01*
X92794762Y-97181116D02*
X92985238Y-97181116D01*
X92985238Y-97181116D02*
X93080476Y-97133497D01*
X93080476Y-97133497D02*
X93128095Y-97085878D01*
X93128095Y-97085878D02*
X93175714Y-96990640D01*
X193481819Y-113037904D02*
X194291342Y-113037904D01*
X194291342Y-113037904D02*
X194386580Y-112990285D01*
X194386580Y-112990285D02*
X194434200Y-112942666D01*
X194434200Y-112942666D02*
X194481819Y-112847428D01*
X194481819Y-112847428D02*
X194481819Y-112656952D01*
X194481819Y-112656952D02*
X194434200Y-112561714D01*
X194434200Y-112561714D02*
X194386580Y-112514095D01*
X194386580Y-112514095D02*
X194291342Y-112466476D01*
X194291342Y-112466476D02*
X193481819Y-112466476D01*
X194481819Y-111466476D02*
X194481819Y-112037904D01*
X194481819Y-111752190D02*
X193481819Y-111752190D01*
X193481819Y-111752190D02*
X193624676Y-111847428D01*
X193624676Y-111847428D02*
X193719914Y-111942666D01*
X193719914Y-111942666D02*
X193767533Y-112037904D01*
X155901642Y-24330819D02*
X155568309Y-23854628D01*
X155330214Y-24330819D02*
X155330214Y-23330819D01*
X155330214Y-23330819D02*
X155711166Y-23330819D01*
X155711166Y-23330819D02*
X155806404Y-23378438D01*
X155806404Y-23378438D02*
X155854023Y-23426057D01*
X155854023Y-23426057D02*
X155901642Y-23521295D01*
X155901642Y-23521295D02*
X155901642Y-23664152D01*
X155901642Y-23664152D02*
X155854023Y-23759390D01*
X155854023Y-23759390D02*
X155806404Y-23807009D01*
X155806404Y-23807009D02*
X155711166Y-23854628D01*
X155711166Y-23854628D02*
X155330214Y-23854628D01*
X156854023Y-24330819D02*
X156282595Y-24330819D01*
X156568309Y-24330819D02*
X156568309Y-23330819D01*
X156568309Y-23330819D02*
X156473071Y-23473676D01*
X156473071Y-23473676D02*
X156377833Y-23568914D01*
X156377833Y-23568914D02*
X156282595Y-23616533D01*
X157473071Y-23330819D02*
X157568309Y-23330819D01*
X157568309Y-23330819D02*
X157663547Y-23378438D01*
X157663547Y-23378438D02*
X157711166Y-23426057D01*
X157711166Y-23426057D02*
X157758785Y-23521295D01*
X157758785Y-23521295D02*
X157806404Y-23711771D01*
X157806404Y-23711771D02*
X157806404Y-23949866D01*
X157806404Y-23949866D02*
X157758785Y-24140342D01*
X157758785Y-24140342D02*
X157711166Y-24235580D01*
X157711166Y-24235580D02*
X157663547Y-24283200D01*
X157663547Y-24283200D02*
X157568309Y-24330819D01*
X157568309Y-24330819D02*
X157473071Y-24330819D01*
X157473071Y-24330819D02*
X157377833Y-24283200D01*
X157377833Y-24283200D02*
X157330214Y-24235580D01*
X157330214Y-24235580D02*
X157282595Y-24140342D01*
X157282595Y-24140342D02*
X157234976Y-23949866D01*
X157234976Y-23949866D02*
X157234976Y-23711771D01*
X157234976Y-23711771D02*
X157282595Y-23521295D01*
X157282595Y-23521295D02*
X157330214Y-23426057D01*
X157330214Y-23426057D02*
X157377833Y-23378438D01*
X157377833Y-23378438D02*
X157473071Y-23330819D01*
X204265333Y-53035580D02*
X204217714Y-53083200D01*
X204217714Y-53083200D02*
X204074857Y-53130819D01*
X204074857Y-53130819D02*
X203979619Y-53130819D01*
X203979619Y-53130819D02*
X203836762Y-53083200D01*
X203836762Y-53083200D02*
X203741524Y-52987961D01*
X203741524Y-52987961D02*
X203693905Y-52892723D01*
X203693905Y-52892723D02*
X203646286Y-52702247D01*
X203646286Y-52702247D02*
X203646286Y-52559390D01*
X203646286Y-52559390D02*
X203693905Y-52368914D01*
X203693905Y-52368914D02*
X203741524Y-52273676D01*
X203741524Y-52273676D02*
X203836762Y-52178438D01*
X203836762Y-52178438D02*
X203979619Y-52130819D01*
X203979619Y-52130819D02*
X204074857Y-52130819D01*
X204074857Y-52130819D02*
X204217714Y-52178438D01*
X204217714Y-52178438D02*
X204265333Y-52226057D01*
X205217714Y-53130819D02*
X204646286Y-53130819D01*
X204932000Y-53130819D02*
X204932000Y-52130819D01*
X204932000Y-52130819D02*
X204836762Y-52273676D01*
X204836762Y-52273676D02*
X204741524Y-52368914D01*
X204741524Y-52368914D02*
X204646286Y-52416533D01*
X257810095Y-100546819D02*
X257810095Y-101356342D01*
X257810095Y-101356342D02*
X257857714Y-101451580D01*
X257857714Y-101451580D02*
X257905333Y-101499200D01*
X257905333Y-101499200D02*
X258000571Y-101546819D01*
X258000571Y-101546819D02*
X258191047Y-101546819D01*
X258191047Y-101546819D02*
X258286285Y-101499200D01*
X258286285Y-101499200D02*
X258333904Y-101451580D01*
X258333904Y-101451580D02*
X258381523Y-101356342D01*
X258381523Y-101356342D02*
X258381523Y-100546819D01*
X258762476Y-100546819D02*
X259381523Y-100546819D01*
X259381523Y-100546819D02*
X259048190Y-100927771D01*
X259048190Y-100927771D02*
X259191047Y-100927771D01*
X259191047Y-100927771D02*
X259286285Y-100975390D01*
X259286285Y-100975390D02*
X259333904Y-101023009D01*
X259333904Y-101023009D02*
X259381523Y-101118247D01*
X259381523Y-101118247D02*
X259381523Y-101356342D01*
X259381523Y-101356342D02*
X259333904Y-101451580D01*
X259333904Y-101451580D02*
X259286285Y-101499200D01*
X259286285Y-101499200D02*
X259191047Y-101546819D01*
X259191047Y-101546819D02*
X258905333Y-101546819D01*
X258905333Y-101546819D02*
X258810095Y-101499200D01*
X258810095Y-101499200D02*
X258762476Y-101451580D01*
X272741642Y-76020819D02*
X272408309Y-75544628D01*
X272170214Y-76020819D02*
X272170214Y-75020819D01*
X272170214Y-75020819D02*
X272551166Y-75020819D01*
X272551166Y-75020819D02*
X272646404Y-75068438D01*
X272646404Y-75068438D02*
X272694023Y-75116057D01*
X272694023Y-75116057D02*
X272741642Y-75211295D01*
X272741642Y-75211295D02*
X272741642Y-75354152D01*
X272741642Y-75354152D02*
X272694023Y-75449390D01*
X272694023Y-75449390D02*
X272646404Y-75497009D01*
X272646404Y-75497009D02*
X272551166Y-75544628D01*
X272551166Y-75544628D02*
X272170214Y-75544628D01*
X273122595Y-75116057D02*
X273170214Y-75068438D01*
X273170214Y-75068438D02*
X273265452Y-75020819D01*
X273265452Y-75020819D02*
X273503547Y-75020819D01*
X273503547Y-75020819D02*
X273598785Y-75068438D01*
X273598785Y-75068438D02*
X273646404Y-75116057D01*
X273646404Y-75116057D02*
X273694023Y-75211295D01*
X273694023Y-75211295D02*
X273694023Y-75306533D01*
X273694023Y-75306533D02*
X273646404Y-75449390D01*
X273646404Y-75449390D02*
X273074976Y-76020819D01*
X273074976Y-76020819D02*
X273694023Y-76020819D01*
X274646404Y-76020819D02*
X274074976Y-76020819D01*
X274360690Y-76020819D02*
X274360690Y-75020819D01*
X274360690Y-75020819D02*
X274265452Y-75163676D01*
X274265452Y-75163676D02*
X274170214Y-75258914D01*
X274170214Y-75258914D02*
X274074976Y-75306533D01*
X144740333Y-39954580D02*
X144692714Y-40002200D01*
X144692714Y-40002200D02*
X144549857Y-40049819D01*
X144549857Y-40049819D02*
X144454619Y-40049819D01*
X144454619Y-40049819D02*
X144311762Y-40002200D01*
X144311762Y-40002200D02*
X144216524Y-39906961D01*
X144216524Y-39906961D02*
X144168905Y-39811723D01*
X144168905Y-39811723D02*
X144121286Y-39621247D01*
X144121286Y-39621247D02*
X144121286Y-39478390D01*
X144121286Y-39478390D02*
X144168905Y-39287914D01*
X144168905Y-39287914D02*
X144216524Y-39192676D01*
X144216524Y-39192676D02*
X144311762Y-39097438D01*
X144311762Y-39097438D02*
X144454619Y-39049819D01*
X144454619Y-39049819D02*
X144549857Y-39049819D01*
X144549857Y-39049819D02*
X144692714Y-39097438D01*
X144692714Y-39097438D02*
X144740333Y-39145057D01*
X145645095Y-39049819D02*
X145168905Y-39049819D01*
X145168905Y-39049819D02*
X145121286Y-39526009D01*
X145121286Y-39526009D02*
X145168905Y-39478390D01*
X145168905Y-39478390D02*
X145264143Y-39430771D01*
X145264143Y-39430771D02*
X145502238Y-39430771D01*
X145502238Y-39430771D02*
X145597476Y-39478390D01*
X145597476Y-39478390D02*
X145645095Y-39526009D01*
X145645095Y-39526009D02*
X145692714Y-39621247D01*
X145692714Y-39621247D02*
X145692714Y-39859342D01*
X145692714Y-39859342D02*
X145645095Y-39954580D01*
X145645095Y-39954580D02*
X145597476Y-40002200D01*
X145597476Y-40002200D02*
X145502238Y-40049819D01*
X145502238Y-40049819D02*
X145264143Y-40049819D01*
X145264143Y-40049819D02*
X145168905Y-40002200D01*
X145168905Y-40002200D02*
X145121286Y-39954580D01*
X105431333Y-110087580D02*
X105383714Y-110135200D01*
X105383714Y-110135200D02*
X105240857Y-110182819D01*
X105240857Y-110182819D02*
X105145619Y-110182819D01*
X105145619Y-110182819D02*
X105002762Y-110135200D01*
X105002762Y-110135200D02*
X104907524Y-110039961D01*
X104907524Y-110039961D02*
X104859905Y-109944723D01*
X104859905Y-109944723D02*
X104812286Y-109754247D01*
X104812286Y-109754247D02*
X104812286Y-109611390D01*
X104812286Y-109611390D02*
X104859905Y-109420914D01*
X104859905Y-109420914D02*
X104907524Y-109325676D01*
X104907524Y-109325676D02*
X105002762Y-109230438D01*
X105002762Y-109230438D02*
X105145619Y-109182819D01*
X105145619Y-109182819D02*
X105240857Y-109182819D01*
X105240857Y-109182819D02*
X105383714Y-109230438D01*
X105383714Y-109230438D02*
X105431333Y-109278057D01*
X105764667Y-109182819D02*
X106383714Y-109182819D01*
X106383714Y-109182819D02*
X106050381Y-109563771D01*
X106050381Y-109563771D02*
X106193238Y-109563771D01*
X106193238Y-109563771D02*
X106288476Y-109611390D01*
X106288476Y-109611390D02*
X106336095Y-109659009D01*
X106336095Y-109659009D02*
X106383714Y-109754247D01*
X106383714Y-109754247D02*
X106383714Y-109992342D01*
X106383714Y-109992342D02*
X106336095Y-110087580D01*
X106336095Y-110087580D02*
X106288476Y-110135200D01*
X106288476Y-110135200D02*
X106193238Y-110182819D01*
X106193238Y-110182819D02*
X105907524Y-110182819D01*
X105907524Y-110182819D02*
X105812286Y-110135200D01*
X105812286Y-110135200D02*
X105764667Y-110087580D01*
D12*
%TO.C,U5*%
X148036000Y-45928000D02*
X174036000Y-45928000D01*
X148036000Y-51928000D02*
X148036000Y-45928000D01*
X148036000Y-65928000D02*
X150036000Y-65928000D01*
X148036000Y-71928000D02*
X148036000Y-65928000D01*
X150036000Y-51928000D02*
X148036000Y-51928000D01*
X150036000Y-65928000D02*
X150036000Y-51928000D01*
X174036000Y-45928000D02*
X174036000Y-71928000D01*
X174036000Y-71928000D02*
X148036000Y-71928000D01*
D13*
X174636000Y-54928000D02*
G75*
G02*
X174436000Y-54928000I-100000J0D01*
G01*
X174436000Y-54928000D02*
G75*
G02*
X174636000Y-54928000I100000J0D01*
G01*
D14*
%TO.C,C11*%
X92406248Y-113927250D02*
X92928752Y-113927250D01*
X92406248Y-115397250D02*
X92928752Y-115397250D01*
%TO.C,R5*%
X158372436Y-39905000D02*
X158826564Y-39905000D01*
X158372436Y-41375000D02*
X158826564Y-41375000D01*
%TO.C,C6*%
X263955748Y-132361000D02*
X264478252Y-132361000D01*
X263955748Y-133831000D02*
X264478252Y-133831000D01*
%TO.C,C10*%
X92133748Y-105037250D02*
X92656252Y-105037250D01*
X92133748Y-106507250D02*
X92656252Y-106507250D01*
%TO.C,D3*%
X266464498Y-114991000D02*
X266464498Y-116911000D01*
X266464498Y-116911000D02*
X269149498Y-116911000D01*
X269149498Y-114991000D02*
X266464498Y-114991000D01*
%TO.C,BT1*%
X121554000Y-17829000D02*
X121554000Y-19079000D01*
X121854000Y-18129000D02*
X121854000Y-22849000D01*
X121854000Y-19439000D02*
X122464000Y-19439000D01*
X121854000Y-20739000D02*
X122464000Y-20739000D01*
X121854000Y-22849000D02*
X127974000Y-22849000D01*
X122464000Y-18739000D02*
X122464000Y-22239000D01*
X122464000Y-22239000D02*
X127364000Y-22239000D01*
X122804000Y-17829000D02*
X121554000Y-17829000D01*
X123314000Y-17929000D02*
X123314000Y-18129000D01*
X123614000Y-17929000D02*
X123314000Y-17929000D01*
X123614000Y-18029000D02*
X123314000Y-18029000D01*
X123614000Y-18129000D02*
X123614000Y-17929000D01*
X124414000Y-18129000D02*
X124414000Y-18739000D01*
X124414000Y-18739000D02*
X122464000Y-18739000D01*
X124814000Y-21739000D02*
X125014000Y-21739000D01*
X124814000Y-22239000D02*
X124814000Y-21739000D01*
X124914000Y-22239000D02*
X124914000Y-21739000D01*
X125014000Y-21739000D02*
X125014000Y-22239000D01*
X125414000Y-18739000D02*
X125414000Y-18129000D01*
X127364000Y-18739000D02*
X125414000Y-18739000D01*
X127364000Y-22239000D02*
X127364000Y-18739000D01*
X127974000Y-18129000D02*
X121854000Y-18129000D01*
X127974000Y-19439000D02*
X127364000Y-19439000D01*
X127974000Y-20739000D02*
X127364000Y-20739000D01*
X127974000Y-22849000D02*
X127974000Y-18129000D01*
D13*
%TO.C,J1*%
X264262000Y-12132000D02*
X264262000Y-13412000D01*
X264262000Y-17382000D02*
X264262000Y-16132000D01*
X273202000Y-13412000D02*
X273202000Y-12132000D01*
X273202000Y-17382000D02*
X273202000Y-16132000D01*
X272082000Y-20732000D02*
G75*
G02*
X271882000Y-20732000I-100000J0D01*
G01*
X271882000Y-20732000D02*
G75*
G02*
X272082000Y-20732000I100000J0D01*
G01*
D14*
%TO.C,J2*%
X232552000Y-37641000D02*
X232552000Y-38891000D01*
X232852000Y-37941000D02*
X232852000Y-42661000D01*
X232852000Y-39251000D02*
X233462000Y-39251000D01*
X232852000Y-40551000D02*
X233462000Y-40551000D01*
X232852000Y-42661000D02*
X238972000Y-42661000D01*
X233462000Y-38551000D02*
X233462000Y-42051000D01*
X233462000Y-42051000D02*
X238362000Y-42051000D01*
X233802000Y-37641000D02*
X232552000Y-37641000D01*
X234312000Y-37741000D02*
X234312000Y-37941000D01*
X234612000Y-37741000D02*
X234312000Y-37741000D01*
X234612000Y-37841000D02*
X234312000Y-37841000D01*
X234612000Y-37941000D02*
X234612000Y-37741000D01*
X235412000Y-37941000D02*
X235412000Y-38551000D01*
X235412000Y-38551000D02*
X233462000Y-38551000D01*
X235812000Y-41551000D02*
X236012000Y-41551000D01*
X235812000Y-42051000D02*
X235812000Y-41551000D01*
X235912000Y-42051000D02*
X235912000Y-41551000D01*
X236012000Y-41551000D02*
X236012000Y-42051000D01*
X236412000Y-38551000D02*
X236412000Y-37941000D01*
X238362000Y-38551000D02*
X236412000Y-38551000D01*
X238362000Y-42051000D02*
X238362000Y-38551000D01*
X238972000Y-37941000D02*
X232852000Y-37941000D01*
X238972000Y-39251000D02*
X238362000Y-39251000D01*
X238972000Y-40551000D02*
X238362000Y-40551000D01*
X238972000Y-42661000D02*
X238972000Y-37941000D01*
%TO.C,C2*%
X172016748Y-29237000D02*
X172539252Y-29237000D01*
X172016748Y-30707000D02*
X172539252Y-30707000D01*
%TO.C,C4*%
X171000748Y-39270000D02*
X171523252Y-39270000D01*
X171000748Y-40740000D02*
X171523252Y-40740000D01*
%TO.C,R17*%
X257639936Y-136806000D02*
X258094064Y-136806000D01*
X257639936Y-138276000D02*
X258094064Y-138276000D01*
%TO.C,R4*%
X260882434Y-91086000D02*
X261336562Y-91086000D01*
X260882434Y-92556000D02*
X261336562Y-92556000D01*
%TO.C,C8*%
X257248248Y-152046000D02*
X257770752Y-152046000D01*
X257248248Y-153516000D02*
X257770752Y-153516000D01*
D15*
%TO.C,P1*%
X114812000Y-102488000D02*
X178812000Y-102488000D01*
X114812000Y-213488000D02*
X114812000Y-102488000D01*
X178812000Y-102488000D02*
X178812000Y-213488000D01*
X178812000Y-213488000D02*
X114812000Y-213488000D01*
D14*
%TO.C,R2*%
X215634936Y-54256000D02*
X216089064Y-54256000D01*
X215634936Y-55726000D02*
X216089064Y-55726000D01*
D11*
%TO.C,F1*%
X199278550Y-64096900D02*
X200568450Y-64096900D01*
X200568450Y-62395100D02*
X199278550Y-62395100D01*
X197701000Y-63246000D02*
G75*
G02*
X197548600Y-63246000I-76200J0D01*
G01*
X197548600Y-63246000D02*
G75*
G02*
X197701000Y-63246000I76200J0D01*
G01*
D13*
%TO.C,J4*%
X197714000Y-12132000D02*
X197714000Y-13412000D01*
X197714000Y-17382000D02*
X197714000Y-16132000D01*
X206654000Y-13412000D02*
X206654000Y-12132000D01*
X206654000Y-17382000D02*
X206654000Y-16132000D01*
X205534000Y-20732000D02*
G75*
G02*
X205334000Y-20732000I-100000J0D01*
G01*
X205334000Y-20732000D02*
G75*
G02*
X205534000Y-20732000I100000J0D01*
G01*
D14*
%TO.C,R6*%
X192417436Y-46001000D02*
X192871564Y-46001000D01*
X192417436Y-47471000D02*
X192871564Y-47471000D01*
%TO.C,R15*%
X113461436Y-91328250D02*
X113915564Y-91328250D01*
X113461436Y-92798250D02*
X113915564Y-92798250D01*
%TO.C,D1*%
X213542000Y-60381000D02*
X213542000Y-62301000D01*
X213542000Y-62301000D02*
X216227000Y-62301000D01*
X216227000Y-60381000D02*
X213542000Y-60381000D01*
%TO.C,R9*%
X151156936Y-25681000D02*
X151611064Y-25681000D01*
X151156936Y-27151000D02*
X151611064Y-27151000D01*
D12*
%TO.C,U2*%
X233892000Y-106666000D02*
X233892000Y-106966000D01*
X233892000Y-106666000D02*
X234192000Y-106666000D01*
X233892000Y-109666000D02*
X233892000Y-109366000D01*
X233892000Y-109666000D02*
X234192000Y-109666000D01*
X236892000Y-106666000D02*
X236592000Y-106666000D01*
X236892000Y-106666000D02*
X236892000Y-106966000D01*
X236892000Y-109666000D02*
X236592000Y-109666000D01*
X236892000Y-109666000D02*
X236892000Y-109366000D01*
D13*
X233017000Y-107216000D02*
G75*
G02*
X232817000Y-107216000I-100000J0D01*
G01*
X232817000Y-107216000D02*
G75*
G02*
X233017000Y-107216000I100000J0D01*
G01*
D14*
%TO.C,R3*%
X248749936Y-132361000D02*
X249204064Y-132361000D01*
X248749936Y-133831000D02*
X249204064Y-133831000D01*
%TO.C,R14*%
X92125436Y-87892250D02*
X92579564Y-87892250D01*
X92125436Y-89362250D02*
X92579564Y-89362250D01*
%TO.C,R11*%
X161397436Y-25681000D02*
X161851564Y-25681000D01*
X161397436Y-27151000D02*
X161851564Y-27151000D01*
%TO.C,L2*%
X267199878Y-106501000D02*
X267999122Y-106501000D01*
X267199878Y-107621000D02*
X267999122Y-107621000D01*
%TO.C,C7*%
X105114498Y-101658750D02*
X105637002Y-101658750D01*
X105114498Y-103128750D02*
X105637002Y-103128750D01*
D13*
%TO.C,U4*%
X263211998Y-81981002D02*
X264611998Y-81981002D01*
X263612000Y-83881004D02*
X264611998Y-83881004D01*
D11*
%TO.C,TH1*%
X258282048Y-76796900D02*
X259571948Y-76796900D01*
X259571948Y-75095100D02*
X258282048Y-75095100D01*
X256704498Y-75946000D02*
G75*
G02*
X256552098Y-75946000I-76200J0D01*
G01*
X256552098Y-75946000D02*
G75*
G02*
X256704498Y-75946000I76200J0D01*
G01*
D14*
%TO.C,R16*%
X223612436Y-44731000D02*
X224066564Y-44731000D01*
X223612436Y-46201000D02*
X224066564Y-46201000D01*
%TO.C,R18*%
X258729064Y-128551000D02*
X258274936Y-128551000D01*
X258729064Y-130021000D02*
X258274936Y-130021000D01*
%TO.C,R13*%
X105333436Y-91721000D02*
X105787564Y-91721000D01*
X105333436Y-93191000D02*
X105787564Y-93191000D01*
%TO.C,R12*%
X211467436Y-46636000D02*
X211921564Y-46636000D01*
X211467436Y-48106000D02*
X211921564Y-48106000D01*
%TO.C,C9*%
X92128748Y-98052250D02*
X92651252Y-98052250D01*
X92128748Y-99522250D02*
X92651252Y-99522250D01*
%TO.C,U1*%
X195327000Y-87976000D02*
X195327000Y-94176000D01*
X195327000Y-87976000D02*
X213727000Y-87976000D01*
X195327000Y-112826000D02*
X195327000Y-113826000D01*
X195327000Y-113826000D02*
X196827000Y-113826000D01*
X213727000Y-87976000D02*
X213727000Y-94176000D01*
X213727000Y-113826000D02*
X212227000Y-113826000D01*
X213727000Y-113826000D02*
X213727000Y-112826000D01*
X195327000Y-94851000D02*
X194827000Y-94851000D01*
X195327000Y-94351000D01*
X195327000Y-94851000D01*
G36*
X195327000Y-94851000D02*
G01*
X194827000Y-94851000D01*
X195327000Y-94351000D01*
X195327000Y-94851000D01*
G37*
%TO.C,R10*%
X156317436Y-25681000D02*
X156771564Y-25681000D01*
X156317436Y-27151000D02*
X156771564Y-27151000D01*
%TO.C,C1*%
X204170748Y-53621000D02*
X204693252Y-53621000D01*
X204170748Y-55091000D02*
X204693252Y-55091000D01*
D11*
%TO.C,U3*%
X253178897Y-99504500D02*
X253178897Y-101155500D01*
X254192357Y-99504500D02*
X253178897Y-99504500D01*
X254459138Y-101155500D02*
X255149856Y-101155500D01*
X256430097Y-99504500D02*
X255416637Y-99504500D01*
X256430097Y-101155500D02*
X256430097Y-99504500D01*
X253923197Y-102692200D02*
G75*
G02*
X253770797Y-102692200I-76200J0D01*
G01*
X253770797Y-102692200D02*
G75*
G02*
X253923197Y-102692200I76200J0D01*
G01*
D14*
%TO.C,R21*%
X273157436Y-76481000D02*
X273611564Y-76481000D01*
X273157436Y-77951000D02*
X273611564Y-77951000D01*
%TO.C,C5*%
X144645748Y-40540000D02*
X145168252Y-40540000D01*
X144645748Y-42010000D02*
X145168252Y-42010000D01*
%TO.C,C3*%
X105336748Y-111025000D02*
X105859252Y-111025000D01*
X105336748Y-112495000D02*
X105859252Y-112495000D01*
%TD*%
M02*
